<?xml version="1.0" encoding="utf-8"?>
<!-- Generator: Adobe Illustrator 27.9.0, SVG Export Plug-In . SVG Version: 6.00 Build 0)  -->
<svg version="1.1" id="Layer_1" xmlns="http://www.w3.org/2000/svg" xmlns:xlink="http://www.w3.org/1999/xlink" x="0px" y="0px"
	 viewBox="0 0 806.4 1062" style="enable-background:new 0 0 806.4 1062;" xml:space="preserve">
<style type="text/css">
	.st0{fill:#FFFFFF;}
</style>
<path d="M-2336.1-548.4v1720h-1037.3V1002c815-167.7,757.5-716.3,423.1-802.4c0,0-289.6-44.5-31.3-290.1
	c209-198.8,225.8-305,225.8-305v-152.9H-2336.1z"/>
<path d="M-3373.4,806.1V-548.4h423.1c83.6,281.1,41.8,204-214.2,498.7c-202.7,233.3,4,310.3,98.8,332.3
	c46.7,10.8,90.6,29.4,127.6,56.4C-2635.6,559.5-3373.4,806.1-3373.4,806.1z"/>
<path class="st0" d="M-3373.4,1002V806.1c0,0,737.8-246.6,435.4-467.2c-37-27-80.9-45.6-127.6-56.4c-94.9-22-301.5-99-98.8-332.3
	c256-294.7,297.8-217.6,214.2-498.7h194.5v152.9c0,0-16.8,106.2-225.8,305c-258.2,245.6,31.3,290.1,31.3,290.1
	C-2615.9,285.7-2558.4,834.3-3373.4,1002z"/>
</svg>
