<?xml version="1.0" encoding="utf-8"?>
<!-- Generator: Adobe Illustrator 27.9.1, SVG Export Plug-In . SVG Version: 6.00 Build 0)  -->
<svg version="1.1" id="Layer_1" xmlns="http://www.w3.org/2000/svg" xmlns:xlink="http://www.w3.org/1999/xlink" x="0px" y="0px"
	 viewBox="0 0 2048 2048" style="enable-background:new 0 0 2048 2048;" xml:space="preserve">
<style type="text/css">
	.st0{fill:url(#SVGID_1_);}
	.st1{fill:#060608;}
	.st2{fill:url(#SVGID_00000012451158666717458670000002526482395817565113_);}
	.st3{fill:#FFFFFF;}
	.st4{fill:url(#SVGID_00000039100136941996071730000013504390837892230578_);}
	.st5{fill:#D1B047;}
	.st6{fill:url(#SVGID_00000171693640700014510910000006564303158275199616_);}
	.st7{fill:url(#SVGID_00000129906562230971832690000016973308512868227231_);}
	.st8{fill:url(#SVGID_00000165954818553478480790000007109637331112886687_);}
	.st9{fill:url(#SVGID_00000049931296450932326440000015667897904207358343_);}
	.st10{fill:url(#SVGID_00000168118143220829957490000015976156461871378566_);}
	.st11{fill:url(#SVGID_00000106841788585112503020000017399939622117376675_);}
	.st12{fill:url(#SVGID_00000061444070957096160300000005025062762551372701_);}
	.st13{fill:url(#SVGID_00000023261067502393372140000014566794683431791528_);}
	.st14{fill:url(#SVGID_00000084516651560261132620000011488803226525792657_);}
	.st15{fill:url(#SVGID_00000100364705388388196040000002408624963141996193_);}
	.st16{fill:url(#SVGID_00000141454314811178656760000006192499484163617174_);}
	.st17{fill:url(#SVGID_00000029042620033755231000000014935910938278783660_);}
	.st18{fill:url(#SVGID_00000053531189863527362200000010039127438609552265_);}
	.st19{fill:url(#SVGID_00000121239037077735527400000010214581138840769186_);}
	.st20{fill:#DB2A33;}
	.st21{fill:#FF2400;}
	.st22{fill:#FFED00;}
	.st23{fill:#EF9E11;}
	.st24{font-family:'Arial-BoldMT';}
	.st25{font-size:234.4607px;}
	.st26{font-size:159.6501px;}
	.st27{fill:#FFFFFF;stroke:#FF0000;stroke-width:25;stroke-miterlimit:10;}
	.st28{font-size:145.2107px;}
	.st29{font-size:82.1755px;}
</style>
<linearGradient id="SVGID_1_" gradientUnits="userSpaceOnUse" x1="-5624.5454" y1="894.9233" x2="-5179.7256" y2="894.9233">
	<stop  offset="0" style="stop-color:#D3B448"/>
	<stop  offset="7.561111e-02" style="stop-color:#CEAC43"/>
	<stop  offset="0.4302" style="stop-color:#B88B30"/>
	<stop  offset="1" style="stop-color:#D3B448"/>
</linearGradient>
<path class="st0" d="M-5179.7,894.9c0,122.8-99.6,222.4-222.4,222.4c-122.8,0-222.4-99.6-222.4-222.4s99.6-222.4,222.4-222.4
	c0,0,0,0,0,0C-5279.3,672.5-5179.7,772.1-5179.7,894.9L-5179.7,894.9z M-5186.8,894.9c0-119-96.4-215.4-215.4-215.4
	c-119,0-215.4,96.4-215.4,215.4s96.4,215.4,215.4,215.4C-5283.2,1110.3-5186.8,1013.8-5186.8,894.9z"/>
<path class="st1" d="M-5186.8,894.9c0,119-96.4,215.4-215.4,215.4c-119,0-215.4-96.4-215.4-215.4s96.4-215.4,215.4-215.4
	C-5283.2,679.5-5186.8,775.9-5186.8,894.9z M-5189.6,894.9c0-117.3-95.1-212.5-212.5-212.5c-117.3,0-212.5,95.1-212.5,212.5
	c0,0,0,0,0,0c0,117.3,95.1,212.5,212.5,212.5S-5189.6,1012.3-5189.6,894.9z"/>
<linearGradient id="SVGID_00000181047381808953223280000007521767572637946262_" gradientUnits="userSpaceOnUse" x1="-5614.5991" y1="894.9233" x2="-5189.6382" y2="894.9233">
	<stop  offset="0" style="stop-color:#D3B448"/>
	<stop  offset="7.561111e-02" style="stop-color:#CEAC43"/>
	<stop  offset="0.4302" style="stop-color:#B88B30"/>
	<stop  offset="1" style="stop-color:#D3B448"/>
</linearGradient>
<path style="fill:url(#SVGID_00000181047381808953223280000007521767572637946262_);" d="M-5189.6,894.9
	c0,117.3-95.1,212.5-212.5,212.5s-212.5-95.1-212.5-212.5s95.1-212.5,212.5-212.5l0,0C-5284.8,682.4-5189.6,777.6-5189.6,894.9z
	 M-5392.5,701.5c0-6.3-5.1-11.3-11.3-11.3l0,0c-6.3,0-11.3,5.1-11.3,11.3c0,0,0,0,0,0c0,6.3,5.1,11.3,11.3,11.3l0,0
	C-5397.6,712.8-5392.5,707.8-5392.5,701.5C-5392.5,701.5-5392.5,701.5-5392.5,701.5z M-5226,894.9c0-97.3-78.9-176.1-176.1-176.1
	c0,0,0,0,0,0c-97.3,0-176.1,78.9-176.1,176.1l0,0c0,97.3,78.9,176.1,176.1,176.1l0,0C-5304.8,1071-5226,992.2-5226,894.9
	L-5226,894.9z M-5499.9,733.7c0-6.3-5.1-11.4-11.4-11.4c0,0,0,0,0,0c-6.3,0-11.4,5.1-11.4,11.4l0,0c0,6.3,5.1,11.4,11.4,11.4l0,0
	C-5505,745-5499.9,740-5499.9,733.7L-5499.9,733.7z M-5283.4,733.6c0-6.2-5.1-11.3-11.3-11.3l0,0c-6.2,0-11.3,5.1-11.3,11.3
	s5.1,11.3,11.3,11.3C-5288.5,744.9-5283.4,739.9-5283.4,733.6C-5283.4,733.6-5283.4,733.6-5283.4,733.6z"/>
<circle class="st1" cx="-5403.9" cy="701.5" r="11.3"/>
<path class="st3" d="M-4637.9,689.3c-8.7,3.5-12.6,14.3-12.2,23.1c0.4,9,4.3,18.6,11.7,23.8c9.3,6.5,21.4,4.5,27.6-5.2
	c1-1.6,1.9-3.2,2.8-5c0.7-1.5,1.8-1.9,3.2-1.2c0.7,0.4,1.1,1.1,0.9,1.9c-2.5,12.7-12.2,21.4-25.2,21.1c-6.7-0.2-12.5-2.5-17.5-7
	c-9.5-8.6-13.4-19.2-11.7-31.8c1.1-7.9,4.8-14.4,11.1-19.4c11.4-9,28.5-7.7,38.6,3.1c2.3,2.5,5.2,7.4,2.3,10.4
	c-2.4,2.5-6,0.8-7.6-1.8c-1.9-3.1-3.6-6.7-6.2-9.1C-4625.2,687.6-4631.1,686.6-4637.9,689.3z"/>
<path class="st3" d="M-4434.6,711.4c1.4-14.3,11.5-25.2,25.7-27.4c3.9-0.6,9.8-0.5,13.8,0.9c10.7,3.7,17.6,11.1,20.6,22.1
	c1.4,5.2,1.5,10.6,0.3,15.9c-4,17.8-19.6,28.6-37.5,23.9c-7.6-2-13.9-6.9-18.1-13.6C-4433.8,727-4435.4,719.7-4434.6,711.4z
	 M-4421.7,729.4c5.6,10.9,18.3,18.4,29.7,11c5.2-3.3,8.3-7.9,9.3-13.8c2.5-14.4-3.5-34.2-19.5-38.2c-13.8-3.4-23.8,8.1-24,21
	C-4426.3,716.8-4424.8,723.5-4421.7,729.4z"/>
<path class="st3" d="M-4584.7,712.8c4.5,0,8.9,0,13.4,0c3.6,0,3.6-2.3,5.2-4.8c0.2-0.3,0.5-0.5,0.9-0.4c1.3,0.1,1.9,0.8,1.9,2.1
	c0.1,3,0.1,6.4,0,10.1c0,0.8-0.3,1.6-1,2.1c-0.6,0.5-1.5,0.4-2-0.2c0-0.1-0.1-0.1-0.1-0.2l-2.3-3.7c-0.3-0.4-0.7-0.7-1.2-0.7
	l-15.3,0c-0.3,0-0.5,0.2-0.5,0.5c0,2.3,0,4.7,0,7.1c0,5-1,10-0.3,14.9c0.2,1.6,1.4,2.8,3,2.8c6.7,0,13.6,0,20.7-0.1
	c1.2,0,2.3-0.6,2.9-1.7l3.9-6.3c0.3-0.5,1-0.9,1.6-0.8c1.9,0.1,2.6,1.9,2.2,3.6c-0.7,2.6-1.4,5.3-2,8c-0.3,1.1-1.3,2-2.5,2
	c-12.5,0-25.5,0-39.1,0c-1.3,0-2.1-0.6-2.3-1.9c-0.1-0.4,0-0.7,0.3-0.9c1.4-1.1,2.5-2.2,2.5-4.2c0-13,0.1-26,0.1-39
	c0-3.7,0-7.2,0-10.7c0-0.7-0.3-1.4-0.9-1.9l-1.4-1.2c-0.7-0.6-0.8-1.6-0.2-2.3c0.3-0.4,0.8-0.6,1.3-0.6l36.7,0c1.2,0,2.3,0.8,2.6,2
	l2.3,9.2c0.2,0.9-0.3,1.8-1.2,2c-0.2,0.1-0.5,0.1-0.7,0c-4.2-0.7-4.4-8.9-10.1-9c-6.5-0.1-12.5-0.1-18.3,0c-0.8,0-1.5,0.7-1.5,1.5
	l0.1,22C-4585.4,712.5-4585.1,712.8-4584.7,712.8C-4584.7,712.8-4584.7,712.8-4584.7,712.8z"/>
<path class="st3" d="M-4512.1,721.2c-0.3,0.1-0.5,0.4-0.5,0.8c0,0.1,0.1,0.1,0.1,0.2c4.2,5.7,8.4,11.5,12.5,17.3
	c1.5,2,3.2,3.4,5.4,4.5c0.7,0.3,0.9,1.2,0.6,1.8c0,0,0,0.1-0.1,0.1c-0.5,0.7-1.1,1.1-2,1.1c-3.9,0.1-8.1,0.1-12.5-0.1
	c-0.9,0-1.6-0.8-1.5-1.6c0-0.4,0.2-0.8,0.5-1.1l1.5-1.4c0.4-0.4,0.5-1.1,0.1-1.5l-12.9-17.8c-0.2-0.3-0.5-0.5-0.9-0.5l-11.1,0.1
	c-0.2,0-0.4,0.2-0.4,0.4c0,0,0,0,0,0c0,5.5,0,11.1,0,16.9c0,1.6,1.3,2.8,2.5,3.5c0.7,0.4,0.9,1.3,0.5,2c0,0.1-0.1,0.1-0.1,0.2
	c-0.5,0.6-1.2,0.9-2.1,0.9c-3.9,0.1-7.4,0.1-10.5,0c-1.1,0-1.8-0.5-2.4-1.5c-0.2-0.4-0.1-0.7,0.2-1l2.5-2.4c0.3-0.3,0.5-0.7,0.5-1.1
	c-0.1-15.7,0-32.4,0.1-50c0-1.8-1.7-3.1-2.9-4.2c-0.4-0.4-0.4-1,0-1.3c0,0,0.1-0.1,0.1-0.1c0.8-0.5,1.7-0.8,2.6-0.9
	c7.9-0.3,15.3-0.2,22.2,0.4c7.9,0.6,16.5,4.1,19.9,11.6c1.7,3.8,2.1,7.8,1.1,11.8C-4500.3,714.3-4505.8,719.6-4512.1,721.2z
	 M-4513.4,716.1c4.4-2.6,6.3-7,5.8-13.3c-1.1-12.8-13.7-14.9-24-14.1c-1,0.1-1.7,0.9-1.7,1.9c0.2,8.2,0.3,16.5,0.1,25
	c0,1.5,0.8,3.1,2.5,3.1C-4524.8,718.9-4518.7,719.2-4513.4,716.1z"/>
<path class="st3" d="M-4476.9,723.8c0.1,5.3,0.1,10.7,0,16c0,2.5,1.2,2.8,2.8,4.2c0.7,0.6,0.8,1.7,0.2,2.3c-0.3,0.3-0.7,0.5-1.2,0.6
	c-3.9,0.2-7.6,0.2-11.1,0.1c-1.2,0-2.1-0.6-2.5-1.6c-0.2-0.4,0-0.9,0.4-1.1c2-1.1,2.9-3,2.9-5.9c-0.1-16.1-0.1-31.6,0.1-46.5
	c0-2-0.8-3.4-2.4-4.3c-0.7-0.4-0.9-1.2-0.6-1.9c0.1-0.1,0.1-0.2,0.2-0.3c0.5-0.6,1.2-0.9,2-0.9c8.3-0.3,15.8-0.2,22.6,0.3
	c10.1,0.8,20,5.9,21.4,16.6c1.3,9.6-4.8,17.1-13.7,19.9c-0.3,0.1-0.4,0.4-0.3,0.6c0,0.1,0,0.1,0.1,0.1c4.4,6,8.6,11.8,12.6,17.3
	c1.4,1.9,3.2,3.5,5.6,4.7c0.6,0.3,0.8,1,0.5,1.6c0,0,0,0,0,0c-0.4,0.8-1.7,1.3-2.6,1.3c-4,0.1-8,0-12-0.1c-0.9,0-1.6-0.8-1.5-1.7
	c0-0.4,0.2-0.8,0.5-1.1l0.9-0.9c0.7-0.7,0.8-1.9,0.2-2.7l-12.6-17.3c-0.2-0.3-0.5-0.4-0.9-0.4c-3.6,0.2-7.1,0.3-10.7,0.2
	C-4476.5,723-4476.8,723.4-4476.9,723.8C-4476.9,723.8-4476.9,723.8-4476.9,723.8z M-4453,696.5c-4.2-7.4-13.9-8.5-22-7.9
	c-1.1,0.1-1.9,1-1.9,2.1c0.1,7.7,0.2,15.9,0.2,24.7c0,2.1,1,3.2,2.9,3.3c4.6,0.2,8.5,0,11.8-0.6
	C-4451.6,716.1-4448.2,705-4453,696.5z"/>
<path class="st1" d="M-5226,894.9c0,97.3-78.9,176.1-176.1,176.1l0,0c-97.3,0-176.1-78.9-176.1-176.1l0,0
	c0-97.3,78.9-176.1,176.1-176.1l0,0C-5304.8,718.7-5226,797.6-5226,894.9L-5226,894.9z M-5228.3,895c0-95.9-77.8-173.7-173.7-173.7
	l0,0c-95.9,0-173.7,77.8-173.7,173.7l0,0c0,95.9,77.8,173.7,173.7,173.7l0,0C-5306.1,1068.7-5228.3,991-5228.3,895L-5228.3,895z"/>
<linearGradient id="SVGID_00000101087837660842247440000001198338807131237788_" gradientUnits="userSpaceOnUse" x1="-5575.7314" y1="895.0254" x2="-5228.3359" y2="895.0254">
	<stop  offset="0" style="stop-color:#D3B448"/>
	<stop  offset="7.561111e-02" style="stop-color:#CEAC43"/>
	<stop  offset="0.4302" style="stop-color:#B88B30"/>
	<stop  offset="1" style="stop-color:#D3B448"/>
</linearGradient>
<path style="fill:url(#SVGID_00000101087837660842247440000001198338807131237788_);" d="M-5228.3,895
	c0,95.9-77.8,173.7-173.7,173.7l0,0c-95.9,0-173.7-77.8-173.7-173.7l0,0c0-95.9,77.8-173.7,173.7-173.7l0,0
	C-5306.1,721.3-5228.3,799.1-5228.3,895L-5228.3,895z M-5237.1,894.8c0-91.2-73.9-165.1-165.1-165.1c-91.2,0-165.1,73.9-165.1,165.1
	s73.9,165.1,165.1,165.1l0,0C-5311,1059.9-5237.1,986-5237.1,894.8L-5237.1,894.8z"/>
<circle class="st1" cx="-5511.2" cy="733.7" r="11.4"/>
<circle class="st1" cx="-5294.7" cy="733.6" r="11.3"/>
<path class="st1" d="M-5237.1,894.8c0,91.2-73.9,165.1-165.1,165.1l0,0c-91.2,0-165.1-73.9-165.1-165.1c0,0,0,0,0,0
	c0-91.2,73.9-165.1,165.1-165.1C-5311,729.7-5237.1,803.6-5237.1,894.8z M-5402.9,1008.4c49.6,0.1,89.9-51.9,90-116.1
	c0.1-64.2-40-116.3-89.6-116.4c0,0,0,0,0,0c-49.6-0.1-89.9,51.9-90,116.1S-5452.5,1008.3-5402.9,1008.4
	C-5402.9,1008.4-5402.9,1008.4-5402.9,1008.4z M-5279,797.1c-0.5-0.6-1.4-0.8-2-0.3c0,0,0,0,0,0l-25.1,18.8c-0.6,0.5-0.8,1.4-0.3,2
	c0,0,0,0,0,0l5.6,7.5c0.5,0.6,1.4,0.8,2,0.3c0,0,0,0,0,0l25.1-18.8c0.6-0.5,0.8-1.4,0.3-2c0,0,0,0,0,0L-5279,797.1z M-5505.7,825.7
	c0.5,0.4,1.3,0.3,1.7-0.2c0,0,0,0,0,0l5.8-7.7c0.4-0.5,0.3-1.3-0.2-1.7c0,0,0,0,0,0l-25.2-19c-0.5-0.4-1.3-0.3-1.7,0.2c0,0,0,0,0,0
	l-5.8,7.8c-0.4,0.5-0.3,1.3,0.3,1.7L-5505.7,825.7z M-5263.4,820.9c-0.4-0.7-1.2-1-1.9-0.6l-27.9,13.9c-0.7,0.4-1,1.2-0.6,1.9
	l4.1,8.1c0.4,0.7,1.2,1,1.9,0.6l27.9-13.9c0.7-0.4,1-1.2,0.6-1.9L-5263.4,820.9z M-5510.6,837.8c0.4-0.8,0.1-1.9-0.8-2.3l-27.4-13.7
	c-0.8-0.4-1.9-0.1-2.3,0.8l-3.8,7.6c-0.4,0.8-0.1,1.9,0.8,2.3l27.4,13.7c0.8,0.4,1.9,0.1,2.3-0.8L-5510.6,837.8z M-5486,827.7
	c0-3.4-2.8-6.2-6.2-6.2c-3.4,0-6.2,2.8-6.2,6.2l0,0c0,3.4,2.8,6.2,6.2,6.2C-5488.8,834-5486,831.2-5486,827.7z M-5305.6,828.6
	c0.1-3.3-2.8-6-6.3-6.1c-3.6-0.1-6.5,2.5-6.6,5.8c-0.1,3.3,2.8,6,6.3,6.1c0,0,0,0,0,0C-5308.6,834.5-5305.7,831.9-5305.6,828.6z
	 M-5496.9,846.4c0-3.4-2.8-6.2-6.2-6.2s-6.2,2.8-6.2,6.2s2.8,6.2,6.2,6.2S-5496.9,849.8-5496.9,846.4z M-5294.9,850.7
	c0.2-3.3-2.4-6.1-5.9-6.4c0,0,0,0,0,0c-3.5-0.3-6.5,2.2-6.7,5.4c0,0,0,0,0,0c-0.2,3.3,2.4,6.1,5.9,6.4c0,0,0,0,0,0
	C-5298.2,856.4-5295.1,854-5294.9,850.7C-5294.9,850.7-5294.9,850.7-5294.9,850.7z M-5520.6,861.4c0.2-0.8-0.3-1.6-1.1-1.8
	c0,0,0,0,0,0l-30-7.6c-0.8-0.2-1.6,0.3-1.8,1.1l-2.2,8.6c-0.2,0.8,0.3,1.6,1.1,1.8c0,0,0,0,0,0l30,7.6c0.8,0.2,1.6-0.3,1.8-1.1
	L-5520.6,861.4z M-5250.8,852.9c-0.2-0.7-0.9-1.2-1.7-1c0,0,0,0,0,0l-30.3,7.7c-0.7,0.2-1.2,0.9-1,1.7l0,0l2.2,8.8
	c0.2,0.7,0.9,1.2,1.7,1c0,0,0,0,0,0l30.3-7.7c0.7-0.2,1.2-0.9,1-1.7v0L-5250.8,852.9z M-5504.6,869.5c0-3.4-2.8-6.2-6.2-6.2
	c-3.4,0-6.2,2.8-6.2,6.2s2.8,6.2,6.2,6.2l0,0C-5507.4,875.7-5504.6,873-5504.6,869.5L-5504.6,869.5z M-5289.7,871.1
	c0-3.4-2.7-6.1-6.1-6.1l0,0c-3.4,0-6.1,2.7-6.1,6.1s2.7,6.1,6.1,6.1C-5292.5,877.2-5289.7,874.5-5289.7,871.1
	C-5289.7,871.1-5289.7,871.1-5289.7,871.1z M-5287.7,920.8c0-3.5-2.8-6.3-6.3-6.3l0,0c-3.5,0-6.3,2.8-6.3,6.3l0,0
	c0,3.5,2.8,6.3,6.3,6.3S-5287.7,924.2-5287.7,920.8L-5287.7,920.8z M-5506.4,921c0-3.4-2.8-6.2-6.2-6.2s-6.2,2.8-6.2,6.2l0,0
	c0,3.4,2.8,6.2,6.2,6.2l0,0C-5509.2,927.2-5506.4,924.4-5506.4,921z M-5522.5,920.6c-0.2-0.8-1-1.3-1.8-1.1c0,0,0,0,0,0l-30.2,7.4
	c-0.8,0.2-1.3,1-1.1,1.8l0,0l2.2,9c0.2,0.8,1,1.3,1.8,1.1l0,0l30.2-7.4c0.8-0.2,1.3-1,1.1-1.8c0,0,0,0,0,0L-5522.5,920.6z
	 M-5249,930c0.3-1.2-0.5-2.5-1.7-2.8c0,0,0,0,0,0l-28.6-7c-1.2-0.3-2.5,0.5-2.8,1.7l-1.8,7.4c-0.3,1.2,0.5,2.5,1.7,2.8c0,0,0,0,0,0
	l28.6,7c1.2,0.3,2.5-0.5,2.8-1.7l0,0L-5249,930z M-5500.1,941.6c0-3.4-2.8-6.2-6.2-6.2c-3.4,0-6.2,2.8-6.2,6.2s2.8,6.2,6.2,6.2
	C-5502.9,947.9-5500.1,945.1-5500.1,941.6z M-5297.3,943c0-3.5-2.8-6.3-6.3-6.3l0,0c-3.5,0-6.3,2.8-6.3,6.3l0,0
	c0,3.5,2.8,6.3,6.3,6.3l0,0C-5300.1,949.3-5297.3,946.5-5297.3,943L-5297.3,943z M-5513.9,946.3c-0.5-1-1.6-1.3-2.6-0.9c0,0,0,0,0,0
	l-27.2,13.6c-1,0.5-1.3,1.6-0.9,2.6c0,0,0,0,0,0l3.7,7.4c0.5,1,1.6,1.3,2.6,0.9c0,0,0,0,0,0l27.2-13.6c1-0.5,1.3-1.6,0.9-2.6
	c0,0,0,0,0,0L-5513.9,946.3z M-5266.3,970.5c0.9,0.4,2,0.1,2.4-0.8c0,0,0,0,0,0l3.7-7.6c0.4-0.9,0.1-2-0.8-2.4l-26.8-13.5
	c-0.9-0.4-1.9-0.1-2.4,0.7l-4.2,7.4c-0.5,0.9-0.2,2,0.7,2.5c0,0,0.1,0,0.1,0L-5266.3,970.5z M-5309.9,960.8c0-3.4-2.8-6.2-6.2-6.2
	c0,0,0,0,0,0c-3.4,0-6.2,2.8-6.2,6.2c0,0,0,0,0,0c0,3.4,2.8,6.2,6.2,6.2C-5312.7,967-5309.9,964.2-5309.9,960.8z M-5488.2,962.9
	c0-3.5-2.8-6.3-6.3-6.3c-3.5,0-6.3,2.8-6.3,6.3l0,0c0,3.5,2.8,6.3,6.3,6.3l0,0C-5491.1,969.2-5488.2,966.3-5488.2,962.9z
	 M-5503.3,964.9c-0.5-0.7-1.4-0.8-2.1-0.3l0,0l-24.9,18.8c-0.7,0.5-0.8,1.4-0.3,2.1c0,0,0,0,0,0l5.6,7.4c0.5,0.7,1.4,0.8,2.1,0.3
	l0,0l24.9-18.8c0.7-0.5,0.8-1.4,0.3-2.1L-5503.3,964.9z M-5274.1,985.9c0.4-0.5,0.3-1.3-0.2-1.7l-25.3-18.8
	c-0.5-0.4-1.3-0.3-1.7,0.2c0,0,0,0,0,0l-5.7,7.6c-0.4,0.5-0.3,1.3,0.2,1.7l25.3,18.8c0.5,0.4,1.3,0.3,1.7-0.2c0,0,0,0,0,0
	L-5274.1,985.9z"/>
<path class="st3" d="M-4363.4,827c-4.8,5.7-12.1,9.3-19,9.5c-2.1,0.1-4.3,0-6.5,0c-17-0.6-30-16.3-31.7-32.2
	c-0.3-2.6-0.4-5.5-0.3-8.6c0.2-7.6,3-15.5,7.4-21.3c8.9-11.7,25.3-17.5,39.8-11.8c3.6,1.4,6.8,3.6,9.6,6.5c0.2,0.2,0.4,0.2,0.6,0
	c0,0,0,0,0,0c0.2-0.2,0.2-0.4,0.2-0.6c0-10.4-0.1-20.7-0.1-31c0-4.1-3.1-5.3-5.8-7.5c-0.3-0.2-0.4-0.5-0.5-0.8
	c-0.3-1.8,0.4-3,2.1-3.6c4.1-1.5,8.6-3,13.5-4.6c2.7-0.9,4.1,0.1,4.1,3c0.1,35.2,0.1,68.6,0.1,100.3c0,1,0.3,1.9,0.8,2.9
	c1.4,2.6,5.7,3.5,4.8,6.9c-0.2,0.8-0.7,1.2-1.6,1.2l-14.5,0c-1.1,0-1.9-0.8-2-1.9l-0.5-6.1C-4362.8,826.7-4363,826.6-4363.4,827z
	 M-4382.3,766c-11-1.4-19.1,5-22.7,15.2c-3.7,10.6-2.5,23.5,1.8,33.7c2.9,6.9,7.3,11.8,13.4,14.7c2.6,1.2,7.1,2.1,9.9,1.5
	c11.9-2.6,16.9-11.9,16.6-23.3c-0.2-6-0.2-11.7,0-17.2c0.1-3.5-0.2-6.5-0.9-8.9C-4366.6,773.7-4374.6,766.9-4382.3,766z"/>
<path class="st3" d="M-4650.4,775.5c2.7,28.5-14.2,52.9-42.8,58.7c-3.8,0.8-8.3,1.1-13.6,1.1c-13.7-0.1-26.8-0.1-39.3,0
	c-0.8,0-1.6-0.3-2.2-0.8c-1.2-1-0.7-2.5,0.3-3.4c2.2-1.9,4.8-3.8,4.8-7c-0.1-27.3,0-55.9,0.2-85.9c0-2.7-1.7-4.6-4-6
	c-1.2-0.8-1.9-2.4-1.5-3.8c0.3-0.8,1-1.4,1.9-1.4c13.7-0.1,26,0,37.1,0.1c5.2,0,11,0.9,17.5,2.7
	C-4669.9,735.6-4652.6,752.3-4650.4,775.5z M-4666.2,795.4c2.5-12.2,0.7-26.1-5.6-36.8c-7.7-13.2-19.2-21.2-34.4-24.1
	c-6-1.1-12.3-0.6-18.5-0.7c-2.4-0.1-4.3,1.8-4.4,4.2c0,0,0,0.1,0,0.1c0.1,26,0.2,53.5,0.2,82.5c0,3.8,2.2,7.7,6.4,7.6
	c4.8-0.1,9.7-0.1,14.8,0C-4686.9,828.5-4670.3,816.1-4666.2,795.4z"/>
<path class="st5" d="M-5402.9,1008.4c-49.6-0.1-89.7-52.2-89.6-116.4c0,0,0,0,0,0c0.1-64.2,40.4-116.2,90-116.1
	c49.6,0.1,89.7,52.2,89.6,116.4c0,0,0,0,0,0C-5313,956.5-5353.3,1008.5-5402.9,1008.4z M-5402.4,1001.8c46-0.2,83.1-49.5,82.9-110.2
	c0,0,0,0,0,0c-0.2-60.7-37.7-109.8-83.7-109.6c-46,0.2-83.1,49.5-82.9,110.2c0,0,0,0,0,0C-5485.8,952.9-5448.4,1001.9-5402.4,1001.8
	z"/>
<path class="st1" d="M-5402.4,1001.8c-46,0.2-83.4-48.9-83.7-109.6c-0.2-60.7,36.9-110,82.9-110.2c0,0,0,0,0,0
	c46-0.2,83.4,48.9,83.7,109.6S-5356.4,1001.6-5402.4,1001.8C-5402.4,1001.8-5402.4,1001.8-5402.4,1001.8z M-5404.8,901.1
	c-8.9-22.7-17.5-46.9-17.9-70.7c-0.2-14.8,3.9-27.7,12.4-38.8c1.3-1.7,0.9-2.2-1.1-1.6c-4.8,1.4-9.5,2.1-14.2,3.9
	c-26.2,10.1-42.9,33.7-50,60.5c-4.6,17.3-5.7,35.4-3.5,54.5c4.5,39.2,31.2,81.7,74.5,84.9c0.6,0,1.1-0.2,1.5-0.7
	c11.3-16.4,15.4-34,12.4-52.9c-0.9-5.6-2.9-12.1-6-19.5C-5399.6,913.9-5402.3,907.4-5404.8,901.1z M-5412.1,846.1
	c2.3,14.1,5.7,27.2,10.2,39.3c7.5,20.1,19.5,40.5,20.8,63.3c1,17-5.4,30.1-14.8,43.8c-0.3,0.5-0.2,1.2,0.3,1.5
	c0.2,0.1,0.5,0.2,0.7,0.2c13.5-1.3,25.9-9.1,35.1-18.5c22.4-22.9,34.1-50.5,35.3-82.7c0.3-6.7-0.8-14.1-1.7-20.9
	c-4.3-32-25-68.4-57.4-78.4c-5-1.6-10.2-2.8-15.7-3.8c-0.6-0.1-1.2,0-1.8,0.4c-1.2,0.8-2.2,1.9-3.2,3.2
	C-5414.6,808.2-5415,828.7-5412.1,846.1z"/>
<linearGradient id="SVGID_00000083059923598925010420000013258893035054522792_" gradientUnits="userSpaceOnUse" x1="-5435.0303" y1="993.7816" x2="-5435.0303" y2="789.7446">
	<stop  offset="0" style="stop-color:#D3B448"/>
	<stop  offset="7.561111e-02" style="stop-color:#CEAC43"/>
	<stop  offset="0.4302" style="stop-color:#B88B30"/>
	<stop  offset="1" style="stop-color:#D3B448"/>
</linearGradient>
<path style="fill:url(#SVGID_00000083059923598925010420000013258893035054522792_);" d="M-5404.8,901.1c2.5,6.3,5.2,12.8,8,19.6
	c3.1,7.4,5.2,13.9,6,19.5c3,18.8-1.1,36.5-12.4,52.9c-0.4,0.5-0.8,0.7-1.5,0.7c-43.4-3.1-70-45.7-74.5-84.9
	c-2.2-19.1-1-37.2,3.5-54.5c7.1-26.9,23.8-50.4,50-60.5c4.7-1.8,9.4-2.6,14.2-3.9c2-0.6,2.4,0,1.1,1.6c-8.5,11-12.6,23.9-12.4,38.8
	C-5422.3,854.2-5413.7,878.4-5404.8,901.1z"/>
<linearGradient id="SVGID_00000055669021186067566920000008136280190098361227_" gradientUnits="userSpaceOnUse" x1="-5369.0981" y1="994.1729" x2="-5369.0981" y2="789.7742">
	<stop  offset="0" style="stop-color:#D3B448"/>
	<stop  offset="7.561111e-02" style="stop-color:#CEAC43"/>
	<stop  offset="0.4302" style="stop-color:#B88B30"/>
	<stop  offset="1" style="stop-color:#D3B448"/>
</linearGradient>
<path style="fill:url(#SVGID_00000055669021186067566920000008136280190098361227_);" d="M-5412.1,846.1
	c-2.9-17.4-2.5-37.9,7.8-52.7c0.9-1.3,2-2.4,3.2-3.2c0.5-0.4,1.1-0.5,1.8-0.4c5.4,1,10.7,2.3,15.7,3.8c32.4,10,53.1,46.4,57.4,78.4
	c0.9,6.8,2,14.2,1.7,20.9c-1.2,32.2-12.9,59.8-35.3,82.7c-9.1,9.3-21.6,17.1-35.1,18.5c-0.6,0.1-1.1-0.4-1.2-1c0-0.3,0-0.5,0.2-0.7
	c9.4-13.7,15.8-26.8,14.8-43.8c-1.3-22.8-13.3-43.2-20.8-63.3C-5406.4,873.3-5409.8,860.2-5412.1,846.1z"/>
<linearGradient id="SVGID_00000088839153028130532790000017869779245621687439_" gradientUnits="userSpaceOnUse" x1="-5306.6528" y1="811.1179" x2="-5273.1509" y2="811.1179">
	<stop  offset="0" style="stop-color:#D3B448"/>
	<stop  offset="7.561111e-02" style="stop-color:#CEAC43"/>
	<stop  offset="0.4302" style="stop-color:#B88B30"/>
	<stop  offset="1" style="stop-color:#D3B448"/>
</linearGradient>
<path style="fill:url(#SVGID_00000088839153028130532790000017869779245621687439_);" d="M-5306.1,815.6l25.1-18.8
	c0.6-0.5,1.5-0.3,2,0.3l5.6,7.5c0.5,0.6,0.3,1.5-0.3,2l-25.1,18.8c-0.6,0.5-1.5,0.3-2-0.3l-5.6-7.5
	C-5306.8,817-5306.7,816.1-5306.1,815.6z"/>
<linearGradient id="SVGID_00000055683625477110432580000017556012522858033059_" gradientUnits="userSpaceOnUse" x1="-5531.3501" y1="811.3931" x2="-5497.9351" y2="811.3931">
	<stop  offset="0" style="stop-color:#D3B448"/>
	<stop  offset="7.561111e-02" style="stop-color:#CEAC43"/>
	<stop  offset="0.4302" style="stop-color:#B88B30"/>
	<stop  offset="1" style="stop-color:#D3B448"/>
</linearGradient>
<path style="fill:url(#SVGID_00000055683625477110432580000017556012522858033059_);" d="M-5505.7,825.7l-25.2-18.9
	c-0.5-0.4-0.6-1.1-0.3-1.7l5.8-7.8c0.4-0.5,1.2-0.6,1.7-0.2c0,0,0,0,0,0l25.2,19c0.5,0.4,0.6,1.2,0.2,1.7c0,0,0,0,0,0l-5.8,7.7
	C-5504.4,826-5505.1,826.1-5505.7,825.7C-5505.7,825.7-5505.7,825.7-5505.7,825.7z"/>
<linearGradient id="SVGID_00000013901254015358778490000016899477470297477767_" gradientUnits="userSpaceOnUse" x1="-5294.0347" y1="832.6261" x2="-5259.2114" y2="832.6261">
	<stop  offset="0" style="stop-color:#D3B448"/>
	<stop  offset="7.561111e-02" style="stop-color:#CEAC43"/>
	<stop  offset="0.4302" style="stop-color:#B88B30"/>
	<stop  offset="1" style="stop-color:#D3B448"/>
</linearGradient>
<path style="fill:url(#SVGID_00000013901254015358778490000016899477470297477767_);" d="M-5293.2,834.2l27.9-13.9
	c0.7-0.4,1.6-0.1,1.9,0.6l4.1,8.1c0.4,0.7,0.1,1.6-0.6,1.9l-27.9,13.9c-0.7,0.4-1.6,0.1-1.9-0.6l-4.1-8.1
	C-5294.2,835.5-5293.9,834.6-5293.2,834.2z"/>
<linearGradient id="SVGID_00000129184363464025130960000004040287242588998798_" gradientUnits="userSpaceOnUse" x1="-5545.0708" y1="833.9353" x2="-5510.4639" y2="833.9353">
	<stop  offset="0" style="stop-color:#D3B448"/>
	<stop  offset="7.561111e-02" style="stop-color:#CEAC43"/>
	<stop  offset="0.4302" style="stop-color:#B88B30"/>
	<stop  offset="1" style="stop-color:#D3B448"/>
</linearGradient>
<path style="fill:url(#SVGID_00000129184363464025130960000004040287242588998798_);" d="M-5538.8,821.7l27.4,13.7
	c0.8,0.4,1.2,1.5,0.8,2.3l-3.8,7.6c-0.4,0.8-1.5,1.2-2.3,0.8l-27.4-13.7c-0.8-0.4-1.2-1.5-0.8-2.3l3.8-7.6
	C-5540.7,821.7-5539.6,821.3-5538.8,821.7z"/>
<circle class="st5" cx="-5492.2" cy="827.7" r="6.2"/>
<path class="st3" d="M-4621.5,831.2c-9.7-6-15.8-14.8-18.1-26.3c-0.4-2-0.6-5.3-0.4-9.9c0.5-18.9,16.1-33.5,34.4-34.5
	c20.4-1.1,37.2,11.2,41.1,31.1c0.3,1.7,0.5,4.5,0.4,8.5c-0.1,3.4-0.3,6.2-0.8,8.5c-3.3,15.4-16,27.4-32.1,28
	C-4605.9,837-4613.9,835.9-4621.5,831.2z M-4582.4,782.7c-4.4-10.2-13.6-18.4-25.2-16.6c-9.6,1.5-15.7,9.4-17.4,18.5
	c-2.2,11.6-0.3,22.5,5.5,32.8c3.4,6,8.1,10.2,14.2,12.5c13,5,24-4.7,26.3-17.4C-4577.2,802.1-4578.3,792.2-4582.4,782.7z"/>
<path class="st3" d="M-4535,771.3c0,1.3,0.3,1.4,0.9,0.2c3.9-7.2,9.8-10.9,17.8-11.2c8.1-0.3,15.6,4,15,13.1
	c-0.3,5.3-5.7,8.7-10.1,5.2c-3.3-2.7-2.7-8.6-7.9-9.3c-10.5-1.5-14.1,10.8-14.1,19.1c0,12.2-0.1,24.2-0.2,36c0,3,3,5,5.4,6.2
	c0.3,0.2,0.5,0.4,0.6,0.7c0.5,1.1,0.4,2.2-0.2,3.3c-0.1,0.3-0.4,0.5-0.7,0.5c-0.9,0.1-1.7,0.1-2.5,0.1c-7,0.1-13.7,0.1-20.3-0.1
	c-0.4,0-0.7-0.2-0.9-0.5c-2.5-3.6,3.4-5.4,4.5-8.2c0.4-1.1,0.6-2.1,0.6-3.2c0-14.6,0-29.1,0-43.6c0-3.8-1.2-5.4-4.3-7.4
	c-3.2-2.1-1.4-5.1,1.3-6.3c4.1-1.8,8-3.6,11.7-5.2c1.3-0.6,2.8,0,3.3,1.3c0.1,0.3,0.2,0.7,0.2,1.1L-4535,771.3z"/>
<path class="st3" d="M-4447.3,828c-1.1,1.1-2,2.4-3.2,3.4c-7.2,5.9-15.5,5.4-24.2,4.9c-10.1-0.6-19.8-7.5-21.6-18
	c-1.9-10.6,1.5-18.4,10.2-23.5c4.1-2.4,8.9-3.7,14.4-4c7.6-0.4,14.2,0.6,20.4,4.9c0.3,0.2,0.7,0.1,0.9-0.2c0.1-0.1,0.1-0.3,0.1-0.5
	c-1.9-11.3-2.5-29-18.2-29.2c-6.5-0.1-11.1,3-13.7,8.8c-1,2.3-2.2,4.5-3.6,6.5c-2.5,3.6-7.8,2.5-9.6-0.9c-2.1-4.1,0.8-9.4,3.8-12.3
	c7.5-6.9,19.8-8.6,29.4-6.9c15.7,2.8,23.8,15.2,25.4,30.3c1.1,10.5,2.2,20.8,3.1,31.1c0.2,2.6,0.9,5.3,3.3,6.6
	c1.5,0.8,4.2,1.3,5.1,2.7c0.6,0.9,0.5,1.7-0.3,2.4c-2.6,2.6-6.8,2.1-10.2,2.2c-5.6,0.2-9.6-1.8-10.5-7.9c0-0.3-0.3-0.4-0.6-0.4
	C-4447.1,827.9-4447.2,827.9-4447.3,828z M-4467,831.2c9.3,1.5,18.8-6.1,18.2-15.8c-0.2-2.8,0-6-0.9-8.5c-3-9.1-12.9-12.1-21.5-9.8
	c-7.6,2.1-11.4,7-11.5,14.8C-4482.7,821.8-4476.8,829.7-4467,831.2z"/>
<path class="st3" d="M-4261.4,814.4c-5,13-16.7,21.6-30.7,22.3c-16.2,0.8-28.5-5.2-36.8-18c-8-12.4-8.2-30.3,0.3-42.4
	c9.9-14,27.1-19,43.6-14c12.9,3.9,22.6,14.8,25.6,28.4C-4257.6,798.5-4258.3,806.4-4261.4,814.4z M-4286.9,830
	c8.8-3.5,13.2-12.8,13.9-22c0.6-7.2-0.3-14.3-2.5-21.1c-3.6-11.1-12.1-21.4-24.3-21c-11.9,0.4-18.8,10-20.3,21.2
	c-2.1,16.2,4.2,38.5,22,43.5C-4294.2,831.6-4290.5,831.4-4286.9,830z"/>
<ellipse transform="matrix(2.094242e-02 -0.9998 0.9998 2.094242e-02 -6029.0879 -4499.7471)" class="st5" cx="-5312" cy="828.5" rx="5.9" ry="6.4"/>
<circle class="st5" cx="-5503.1" cy="846.4" r="6.2"/>
<ellipse transform="matrix(7.149744e-02 -0.9974 0.9974 7.149744e-02 -5770.2661 -4498.208)" class="st5" cx="-5301.2" cy="850.2" rx="5.9" ry="6.3"/>
<linearGradient id="SVGID_00000013177564143706682500000014562881642014961332_" gradientUnits="userSpaceOnUse" x1="-5555.7236" y1="861.5304" x2="-5520.52" y2="861.5304">
	<stop  offset="0" style="stop-color:#D3B448"/>
	<stop  offset="7.561111e-02" style="stop-color:#CEAC43"/>
	<stop  offset="0.4302" style="stop-color:#B88B30"/>
	<stop  offset="1" style="stop-color:#D3B448"/>
</linearGradient>
<path style="fill:url(#SVGID_00000013177564143706682500000014562881642014961332_);" d="M-5551.7,852l30,7.6c0.8,0.2,1.3,1,1.1,1.8
	l-2.2,8.6c-0.2,0.8-1,1.3-1.8,1.1l-30-7.6c-0.8-0.2-1.3-1-1.1-1.8l2.2-8.6C-5553.3,852.3-5552.5,851.8-5551.7,852z"/>
<linearGradient id="SVGID_00000162347651521584755910000007320869903342437031_" gradientUnits="userSpaceOnUse" x1="-5283.793" y1="861.4794" x2="-5248.5059" y2="861.4794">
	<stop  offset="0" style="stop-color:#D3B448"/>
	<stop  offset="7.561111e-02" style="stop-color:#CEAC43"/>
	<stop  offset="0.4302" style="stop-color:#B88B30"/>
	<stop  offset="1" style="stop-color:#D3B448"/>
</linearGradient>
<path style="fill:url(#SVGID_00000162347651521584755910000007320869903342437031_);" d="M-5282.7,859.5l30.3-7.7
	c0.7-0.2,1.5,0.3,1.7,1l2.2,8.8c0.2,0.7-0.3,1.5-1,1.7l-30.3,7.7c-0.7,0.2-1.5-0.3-1.7-1l-2.2-8.8
	C-5283.9,860.5-5283.5,859.7-5282.7,859.5z"/>
<circle class="st5" cx="-5510.8" cy="869.5" r="6.2"/>
<circle class="st5" cx="-5295.8" cy="871.1" r="6.1"/>
<circle class="st5" cx="-5293.9" cy="920.8" r="6.3"/>
<circle class="st5" cx="-5512.6" cy="921" r="6.2"/>
<linearGradient id="SVGID_00000031922233194389396550000005604763008692093612_" gradientUnits="userSpaceOnUse" x1="-5555.6333" y1="929.2344" x2="-5520.2021" y2="929.2344">
	<stop  offset="0" style="stop-color:#D3B448"/>
	<stop  offset="7.561111e-02" style="stop-color:#CEAC43"/>
	<stop  offset="0.4302" style="stop-color:#B88B30"/>
	<stop  offset="1" style="stop-color:#D3B448"/>
</linearGradient>
<path style="fill:url(#SVGID_00000031922233194389396550000005604763008692093612_);" d="M-5554.5,927l30.2-7.4
	c0.8-0.2,1.6,0.3,1.8,1.1l2.2,9c0.2,0.8-0.3,1.6-1.1,1.8l-30.2,7.4c-0.8,0.2-1.6-0.3-1.8-1.1l-2.2-9
	C-5555.8,928-5555.3,927.2-5554.5,927z"/>
<linearGradient id="SVGID_00000041984417148043194320000003577913349184559250_" gradientUnits="userSpaceOnUse" x1="-5283.9038" y1="929.6255" x2="-5248.9048" y2="929.6255">
	<stop  offset="0" style="stop-color:#D3B448"/>
	<stop  offset="7.561111e-02" style="stop-color:#CEAC43"/>
	<stop  offset="0.4302" style="stop-color:#B88B30"/>
	<stop  offset="1" style="stop-color:#D3B448"/>
</linearGradient>
<path style="fill:url(#SVGID_00000041984417148043194320000003577913349184559250_);" d="M-5279.3,920.2l28.6,7
	c1.2,0.3,2,1.5,1.7,2.8l-1.8,7.4c-0.3,1.2-1.5,2-2.8,1.7l-28.6-7c-1.2-0.3-2-1.5-1.7-2.8l1.8-7.4
	C-5281.7,920.7-5280.5,919.9-5279.3,920.2z"/>
<circle class="st5" cx="-5506.3" cy="941.6" r="6.2"/>
<circle class="st5" cx="-5303.6" cy="943" r="6.3"/>
<linearGradient id="SVGID_00000034082533250931841860000009003249693534728352_" gradientUnits="userSpaceOnUse" x1="-5544.7314" y1="957.6796" x2="-5509.9868" y2="957.6796">
	<stop  offset="0" style="stop-color:#D3B448"/>
	<stop  offset="7.561111e-02" style="stop-color:#CEAC43"/>
	<stop  offset="0.4302" style="stop-color:#B88B30"/>
	<stop  offset="1" style="stop-color:#D3B448"/>
</linearGradient>
<path style="fill:url(#SVGID_00000034082533250931841860000009003249693534728352_);" d="M-5543.7,959.1l27.2-13.6
	c1-0.5,2.1-0.1,2.6,0.9l3.7,7.4c0.5,1,0.1,2.1-0.9,2.6l-27.2,13.6c-1,0.5-2.1,0.1-2.6-0.9l-3.7-7.4
	C-5545,960.7-5544.6,959.6-5543.7,959.1z"/>
<linearGradient id="SVGID_00000026880165160944621780000005883524458893263802_" gradientUnits="userSpaceOnUse" x1="-5294.624" y1="958.3067" x2="-5259.9839" y2="958.3067">
	<stop  offset="0" style="stop-color:#D3B448"/>
	<stop  offset="7.561111e-02" style="stop-color:#CEAC43"/>
	<stop  offset="0.4302" style="stop-color:#B88B30"/>
	<stop  offset="1" style="stop-color:#D3B448"/>
</linearGradient>
<path style="fill:url(#SVGID_00000026880165160944621780000005883524458893263802_);" d="M-5266.3,970.5l-27.3-13.6
	c-0.9-0.4-1.3-1.5-0.8-2.4c0,0,0-0.1,0-0.1l4.2-7.4c0.5-0.9,1.5-1.2,2.4-0.7l26.8,13.5c0.9,0.4,1.2,1.5,0.8,2.4l-3.7,7.6
	C-5264.3,970.5-5265.4,970.9-5266.3,970.5C-5266.3,970.5-5266.3,970.5-5266.3,970.5z"/>
<circle class="st5" cx="-5316.1" cy="960.8" r="6.2"/>
<circle class="st5" cx="-5494.5" cy="962.9" r="6.3"/>
<linearGradient id="SVGID_00000139272998561732499840000003048837383715451553_" gradientUnits="userSpaceOnUse" x1="-5530.9341" y1="978.9498" x2="-5497.4307" y2="978.9498">
	<stop  offset="0" style="stop-color:#D3B448"/>
	<stop  offset="7.561111e-02" style="stop-color:#CEAC43"/>
	<stop  offset="0.4302" style="stop-color:#B88B30"/>
	<stop  offset="1" style="stop-color:#D3B448"/>
</linearGradient>
<path style="fill:url(#SVGID_00000139272998561732499840000003048837383715451553_);" d="M-5530.3,983.4l24.9-18.8
	c0.7-0.5,1.6-0.4,2.1,0.3l5.6,7.4c0.5,0.7,0.4,1.6-0.3,2.1l-24.9,18.8c-0.7,0.5-1.6,0.4-2.1-0.3l-5.6-7.4
	C-5531.1,984.9-5531,983.9-5530.3,983.4z"/>
<linearGradient id="SVGID_00000139268851360511111910000009856365518607351443_" gradientUnits="userSpaceOnUse" x1="-5307.2954" y1="979.5959" x2="-5273.9028" y2="979.5959">
	<stop  offset="0" style="stop-color:#D3B448"/>
	<stop  offset="7.561111e-02" style="stop-color:#CEAC43"/>
	<stop  offset="0.4302" style="stop-color:#B88B30"/>
	<stop  offset="1" style="stop-color:#D3B448"/>
</linearGradient>
<path style="fill:url(#SVGID_00000139268851360511111910000009856365518607351443_);" d="M-5299.7,965.4l25.3,18.8
	c0.5,0.4,0.7,1.2,0.2,1.7l-5.7,7.6c-0.4,0.5-1.2,0.7-1.7,0.2l-25.3-18.8c-0.5-0.4-0.7-1.2-0.2-1.7l5.7-7.6
	C-5301,965.1-5300.2,965-5299.7,965.4z"/>
<path class="st3" d="M-4748,850.7c0.1-0.6,0.3-1.2,0.7-1.7c0.5-0.7,1.2-1,2.1-1l485,0c0.3,0,0.5,0.2,0.5,0.5l0,2.8
	c0,0.3-0.3,0.6-0.6,0.6H-4747C-4747.7,851.8-4748.1,851.4-4748,850.7z"/>
<g>
	<path class="st3" d="M-4534.6,888.1c-1.3,0.7-4,1.3-7.4,1.3c-7.9,0-13.8-5-13.8-14.1c0-8.7,5.9-14.6,14.6-14.6
		c3.5,0,5.7,0.7,6.6,1.2l-0.9,2.9c-1.4-0.7-3.3-1.2-5.6-1.2c-6.5,0-10.9,4.2-10.9,11.5c0,6.8,3.9,11.2,10.7,11.2
		c2.2,0,4.4-0.5,5.9-1.2L-4534.6,888.1z"/>
	<path class="st3" d="M-4519.4,889l-0.3-2.5h-0.1c-1.1,1.6-3.3,3-6.1,3c-4.1,0-6.1-2.9-6.1-5.8c0-4.8,4.3-7.5,12-7.4v-0.4
		c0-1.7-0.5-4.6-4.6-4.6c-1.9,0-3.8,0.6-5.2,1.5l-0.8-2.4c1.7-1.1,4.1-1.8,6.6-1.8c6.1,0,7.6,4.2,7.6,8.2v7.5c0,1.7,0.1,3.4,0.3,4.8
		H-4519.4z M-4519.9,878.8c-4-0.1-8.5,0.6-8.5,4.5c0,2.4,1.6,3.5,3.4,3.5c2.6,0,4.3-1.7,4.8-3.4c0.1-0.4,0.2-0.8,0.2-1.2V878.8z"/>
	<path class="st3" d="M-4510.2,889v-17.2h-2.8V869h2.8v-1c0-2.8,0.6-5.4,2.3-7c1.4-1.3,3.2-1.9,4.9-1.9c1.3,0,2.4,0.3,3.1,0.6
		l-0.5,2.8c-0.5-0.2-1.3-0.5-2.3-0.5c-3.1,0-3.9,2.7-3.9,5.8v1.1h4.8v2.8h-4.8V889H-4510.2z"/>
	<path class="st3" d="M-4497,879.6c0.1,4.9,3.2,6.9,6.9,6.9c2.6,0,4.2-0.5,5.5-1l0.6,2.6c-1.3,0.6-3.5,1.2-6.7,1.2
		c-6.2,0-9.8-4.1-9.8-10.1c0-6,3.6-10.8,9.4-10.8c6.5,0,8.3,5.8,8.3,9.4c0,0.7-0.1,1.3-0.1,1.7H-4497z M-4486.3,877
		c0-2.3-1-5.9-5-5.9c-3.7,0-5.3,3.4-5.6,5.9H-4486.3z M-4485.4,860.3l-5,5.9h-2.6l3.6-5.9H-4485.4z"/>
</g>
<image style="overflow:visible;" width="800" height="284" xlink:href="F79B3F89.jpg"  transform="matrix(1 0 0 1 -5458.7676 237.4403)">
</image>
<rect x="-3710.2" y="0" class="st20" width="510.5" height="249.2"/>
<image style="display:none;overflow:visible;" width="2048" height="2048" xlink:href="../Toberin - Foundever.png"  transform="matrix(0.7535 0 0 0.7535 -3710.2222 0)">
</image>
<g>
	<g>
		<path class="st21" d="M-3266.2,1133.3v-27.8h5.3v27.8H-3266.2z M-3262.9,1122.2v-5.5h36.2v5.5H-3262.9z"/>
		<path class="st21" d="M-3227.7,1097.2c-1,1.7-2.4,3.1-4.2,4c-1.8,0.9-4,1.4-6.6,1.4h-4.6c-2.6,0-4.7-0.5-6.6-1.4
			c-1.8-0.9-3.2-2.2-4.2-4c-1-1.7-1.4-3.8-1.4-6.3s0.5-4.5,1.4-6.3c0.9-1.7,2.3-3.1,4.2-4c1.8-0.9,4-1.4,6.6-1.4h4.7
			c2.6,0,4.8,0.5,6.6,1.4c1.8,0.9,3.2,2.2,4.2,4s1.4,3.8,1.4,6.3S-3226.8,1095.4-3227.7,1097.2z M-3233.4,1086.4
			c-1.2-1.1-2.9-1.6-5.1-1.6h-4.7c-2.2,0-3.9,0.5-5.1,1.6c-1.2,1.1-1.8,2.6-1.8,4.5s0.6,3.4,1.8,4.5c1.2,1.1,2.9,1.6,5.1,1.6h4.7
			c2.2,0,3.9-0.5,5.1-1.6c1.2-1.1,1.8-2.6,1.8-4.5S-3232.2,1087.5-3233.4,1086.4z"/>
		<path class="st21" d="M-3266.2,1071.4v-5.5h39.5v5.5H-3266.2z M-3227.6,1063.4c-0.8,1.3-2,2.3-3.6,2.9l-5.9-0.4
			c1.2,0,2.2-0.2,3.1-0.7c0.9-0.4,1.5-1.1,2-1.9c0.5-0.8,0.7-1.8,0.7-3c0-1.8-0.6-3.2-1.7-4.2c-1.1-1-2.7-1.5-4.7-1.5h-6.1
			c-2.1,0-3.7,0.5-4.8,1.5c-1.1,1-1.7,2.4-1.7,4.2c0,1.2,0.2,2.2,0.7,3c0.4,0.8,1.1,1.5,1.9,1.9c0.8,0.4,1.8,0.7,3,0.7l-5.4,0.6
			c-1.6-0.8-2.9-2-3.8-3.3s-1.3-2.9-1.3-4.6c0-2,0.4-3.7,1.3-5.1c0.9-1.4,2.2-2.5,3.9-3.2c1.7-0.7,3.8-1.1,6.2-1.1h6.1
			c2.4,0,4.4,0.4,6.1,1.1c1.7,0.8,3,1.9,3.9,3.3s1.3,3.2,1.3,5.3C-3226.3,1060.5-3226.7,1062.1-3227.6,1063.4z"/>
		<path class="st21" d="M-3227.8,1036.3c-1,1.8-2.4,3.3-4.3,4.2c-1.9,1-4.2,1.5-6.9,1.5h-3.2c-2.8,0-5.2-0.5-7.1-1.4
			c-2-0.9-3.5-2.3-4.5-4.1s-1.5-3.9-1.5-6.4c0-2.4,0.6-4.4,1.8-6c1.2-1.7,2.9-2.9,5.1-3.8s4.9-1.3,8-1.3h1.8v19h-4.5v-13.7
			c-2.3,0.2-4.1,0.8-5.4,1.8c-1.3,1-1.9,2.4-1.9,4.1c0,2.1,0.7,3.7,2.1,4.9c1.4,1.1,3.3,1.7,5.8,1.7h3.6c2.3,0,4.1-0.6,5.4-1.8
			c1.2-1.2,1.9-3,1.9-5.2c0-1.1-0.2-2.2-0.7-3.3c-0.5-1.1-1.1-2.1-1.9-3l3.6-3.6c1.3,1.4,2.4,3,3.1,4.7c0.7,1.7,1.1,3.5,1.1,5.2
			C-3226.3,1032.2-3226.8,1034.5-3227.8,1036.3z"/>
		<path class="st21" d="M-3249.6,997.7c-0.3,0.7-0.5,1.6-0.5,2.6c0,1.8,0.5,3.1,1.5,4.1c1,1,2.3,1.5,4,1.5l-5.4,0.6
			c-1.7-0.9-3-2-3.9-3.4s-1.4-2.9-1.4-4.6c0-1.3,0.2-2.4,0.6-3.5c0.4-1,0.9-2,1.6-2.7l4.9,3.6
			C-3248.8,996.4-3249.3,997-3249.6,997.7z M-3254.9,1011.4v-5.5h28.2v5.5H-3254.9z"/>
		<path class="st21" d="M-3263.1,987.9l-9.6-7.8l3.3-4l9.1,8.3L-3263.1,987.9z M-3254.9,987.6v-5.5h28.2v5.5H-3254.9z"/>
		<path class="st21" d="M-3243.8,956.6c-2,0-3.5,0.5-4.6,1.5s-1.6,2.5-1.6,4.3c0,1.8,0.5,3.2,1.4,4.2c1,1,2.3,1.5,4,1.5l-5.4,0.6
			c-1.7-0.9-3-2-3.9-3.4c-0.9-1.4-1.4-3-1.4-4.7c0-3.1,1-5.4,3-7.1c2-1.7,4.8-2.5,8.5-2.5h17.1v5.5H-3243.8z M-3254.9,973.7v-5.5
			h28.2v5.5H-3254.9z"/>
		<path class="st21" d="M-3243.5,909.5h5.3v18.2h-5.3V909.5z"/>
		<path class="st21" d="M-3266.2,882.9v-22.1h5.3v22.1H-3266.2z M-3266.2,885.6v-5.5h39.5v5.5H-3266.2z M-3248.6,882.9v-19.1h5.3
			v19.1H-3248.6z"/>
		<path class="st21" d="M-3227.7,850.5c-1,1.7-2.4,3.1-4.2,4c-1.8,0.9-4,1.4-6.6,1.4h-4.6c-2.6,0-4.7-0.5-6.6-1.4
			c-1.8-0.9-3.2-2.2-4.2-4c-1-1.7-1.4-3.8-1.4-6.3s0.5-4.5,1.4-6.3c0.9-1.7,2.3-3.1,4.2-4c1.8-0.9,4-1.4,6.6-1.4h4.7
			c2.6,0,4.8,0.5,6.6,1.4c1.8,0.9,3.2,2.2,4.2,4s1.4,3.8,1.4,6.3S-3226.8,848.8-3227.7,850.5z M-3233.4,839.8
			c-1.2-1.1-2.9-1.6-5.1-1.6h-4.7c-2.2,0-3.9,0.5-5.1,1.6c-1.2,1.1-1.8,2.6-1.8,4.5s0.6,3.4,1.8,4.5c1.2,1.1,2.9,1.6,5.1,1.6h4.7
			c2.2,0,3.9-0.5,5.1-1.6c1.2-1.1,1.8-2.6,1.8-4.5S-3232.2,840.8-3233.4,839.8z"/>
		<path class="st21" d="M-3254.9,807.8v-5.5h28.2v5.5H-3254.9z M-3237.8,819.2c2,0,3.5-0.5,4.6-1.5c1.1-1,1.6-2.4,1.6-4.2
			c0-1.8-0.5-3.2-1.4-4.2s-2.3-1.5-4.1-1.5l5.9-0.4c1.4,0.6,2.6,1.5,3.5,2.8c0.9,1.3,1.4,2.9,1.4,4.8c0,3.1-1,5.5-3,7.2
			c-2,1.7-4.8,2.5-8.5,2.5h-17.1v-5.5H-3237.8z"/>
		<path class="st21" d="M-3243.8,776.8c-2,0-3.5,0.5-4.6,1.5c-1.1,1-1.6,2.5-1.6,4.3c0,1.8,0.5,3.2,1.4,4.2c1,1,2.3,1.5,4,1.5
			l-5.4,0.6c-1.7-0.9-3-2-3.9-3.4s-1.4-3-1.4-4.7c0-3.1,1-5.4,3-7.1c2-1.7,4.8-2.5,8.5-2.5h17.1v5.5H-3243.8z M-3254.9,793.9v-5.5
			h28.2v5.5H-3254.9z"/>
		<path class="st21" d="M-3266.2,746.8v-5.5h39.5v5.5H-3266.2z M-3227.6,759.2c-0.9,1.5-2.2,2.6-3.9,3.3c-1.7,0.8-3.8,1.1-6.2,1.1
			h-6.2c-2.4,0-4.5-0.4-6.2-1.1c-1.7-0.7-3-1.8-3.9-3.2s-1.3-3.1-1.3-5.1c0-1.7,0.4-3.2,1.3-4.6c0.9-1.4,2.1-2.5,3.7-3.4l5.8,0.6
			c-1.2,0-2.2,0.2-3.1,0.7c-0.9,0.4-1.5,1.1-1.9,1.9s-0.7,1.8-0.7,3c0,1.8,0.6,3.2,1.7,4.2c1.1,1,2.7,1.5,4.8,1.5h6.1
			c2,0,3.6-0.5,4.7-1.5c1.1-1,1.7-2.4,1.7-4.2c0-1.2-0.2-2.2-0.7-3c-0.5-0.8-1.1-1.5-2-1.9c-0.9-0.4-1.9-0.7-3.1-0.7l5.9-0.4
			c1.4,0.6,2.6,1.5,3.5,2.8c0.9,1.3,1.4,2.8,1.4,4.7C-3226.2,755.9-3226.7,757.7-3227.6,759.2z"/>
		<path class="st21" d="M-3227.8,728c-1,1.8-2.4,3.3-4.3,4.2c-1.9,1-4.2,1.5-6.9,1.5h-3.2c-2.8,0-5.2-0.5-7.1-1.4
			c-2-0.9-3.5-2.3-4.5-4.1c-1-1.8-1.5-3.9-1.5-6.4c0-2.4,0.6-4.4,1.8-6c1.2-1.7,2.9-2.9,5.1-3.8c2.2-0.9,4.9-1.3,8-1.3h1.8v19h-4.5
			v-13.7c-2.3,0.2-4.1,0.8-5.4,1.8c-1.3,1-1.9,2.4-1.9,4.1c0,2.1,0.7,3.7,2.1,4.9c1.4,1.1,3.3,1.7,5.8,1.7h3.6
			c2.3,0,4.1-0.6,5.4-1.8c1.2-1.2,1.9-3,1.9-5.2c0-1.1-0.2-2.2-0.7-3.3c-0.5-1.1-1.1-2.1-1.9-3l3.6-3.6c1.3,1.4,2.4,3,3.1,4.7
			c0.7,1.7,1.1,3.5,1.1,5.2C-3226.3,723.9-3226.8,726.1-3227.8,728z"/>
		<path class="st21" d="M-3254.9,686.5v-5.8l28.2,10.6v4.2l-28.2,10.6v-5.8l20.1-6.9L-3254.9,686.5z"/>
		<path class="st21" d="M-3227.8,670.4c-1,1.8-2.4,3.3-4.3,4.2c-1.9,1-4.2,1.5-6.9,1.5h-3.2c-2.8,0-5.2-0.5-7.1-1.4
			c-2-0.9-3.5-2.3-4.5-4.1c-1-1.8-1.5-3.9-1.5-6.4c0-2.4,0.6-4.4,1.8-6c1.2-1.7,2.9-2.9,5.1-3.8c2.2-0.9,4.9-1.3,8-1.3h1.8v19h-4.5
			v-13.7c-2.3,0.2-4.1,0.8-5.4,1.8c-1.3,1-1.9,2.4-1.9,4.1c0,2.1,0.7,3.7,2.1,4.9c1.4,1.1,3.3,1.7,5.8,1.7h3.6
			c2.3,0,4.1-0.6,5.4-1.8c1.2-1.2,1.9-3,1.9-5.2c0-1.1-0.2-2.2-0.7-3.3c-0.5-1.1-1.1-2.1-1.9-3l3.6-3.6c1.3,1.4,2.4,3,3.1,4.7
			c0.7,1.7,1.1,3.5,1.1,5.2C-3226.3,666.3-3226.8,668.5-3227.8,670.4z"/>
		<path class="st21" d="M-3249.6,631.8c-0.3,0.7-0.5,1.6-0.5,2.6c0,1.8,0.5,3.1,1.5,4.1c1,1,2.3,1.5,4,1.5l-5.4,0.6
			c-1.7-0.9-3-2-3.9-3.4s-1.4-2.9-1.4-4.6c0-1.3,0.2-2.4,0.6-3.5c0.4-1,0.9-1.9,1.6-2.7l4.9,3.6
			C-3248.8,630.4-3249.3,631.1-3249.6,631.8z M-3254.9,645.4v-5.5h28.2v5.5H-3254.9z"/>
	</g>
</g>
<g>
	<g>
		<path class="st21" d="M-3524.3,1133.3v-27.8h5.3v27.8H-3524.3z M-3521.1,1122.2v-5.5h36.2v5.5H-3521.1z"/>
		<path class="st21" d="M-3485.9,1097.2c-1,1.7-2.4,3.1-4.2,4c-1.8,0.9-4,1.4-6.6,1.4h-4.6c-2.6,0-4.7-0.5-6.6-1.4
			c-1.8-0.9-3.2-2.2-4.2-4c-1-1.7-1.4-3.8-1.4-6.3s0.5-4.5,1.4-6.3c0.9-1.7,2.3-3.1,4.2-4c1.8-0.9,4-1.4,6.6-1.4h4.7
			c2.6,0,4.8,0.5,6.6,1.4c1.8,0.9,3.2,2.2,4.2,4s1.4,3.8,1.4,6.3S-3484.9,1095.4-3485.9,1097.2z M-3491.5,1086.4
			c-1.2-1.1-2.9-1.6-5.1-1.6h-4.7c-2.2,0-3.9,0.5-5.1,1.6c-1.2,1.1-1.8,2.6-1.8,4.5s0.6,3.4,1.8,4.5c1.2,1.1,2.9,1.6,5.1,1.6h4.7
			c2.2,0,3.9-0.5,5.1-1.6c1.2-1.1,1.8-2.6,1.8-4.5S-3490.3,1087.5-3491.5,1086.4z"/>
		<path class="st21" d="M-3524.3,1071.4v-5.5h39.5v5.5H-3524.3z M-3485.7,1063.4c-0.8,1.3-2,2.3-3.6,2.9l-5.9-0.4
			c1.2,0,2.2-0.2,3.1-0.7c0.9-0.4,1.5-1.1,2-1.9c0.5-0.8,0.7-1.8,0.7-3c0-1.8-0.6-3.2-1.7-4.2c-1.1-1-2.7-1.5-4.7-1.5h-6.1
			c-2.1,0-3.7,0.5-4.8,1.5c-1.1,1-1.7,2.4-1.7,4.2c0,1.2,0.2,2.2,0.7,3c0.4,0.8,1.1,1.5,1.9,1.9c0.8,0.4,1.8,0.7,3,0.7l-5.4,0.6
			c-1.6-0.8-2.9-2-3.8-3.3s-1.3-2.9-1.3-4.6c0-2,0.4-3.7,1.3-5.1c0.9-1.4,2.2-2.5,3.9-3.2c1.7-0.7,3.8-1.1,6.2-1.1h6.1
			c2.4,0,4.4,0.4,6.1,1.1c1.7,0.8,3,1.9,3.9,3.3s1.3,3.2,1.3,5.3C-3484.5,1060.5-3484.9,1062.1-3485.7,1063.4z"/>
		<path class="st21" d="M-3485.9,1036.3c-1,1.8-2.4,3.3-4.3,4.2c-1.9,1-4.2,1.5-6.9,1.5h-3.2c-2.8,0-5.2-0.5-7.1-1.4
			c-2-0.9-3.5-2.3-4.5-4.1s-1.5-3.9-1.5-6.4c0-2.4,0.6-4.4,1.8-6c1.2-1.7,2.9-2.9,5.1-3.8s4.9-1.3,8-1.3h1.8v19h-4.5v-13.7
			c-2.3,0.2-4.1,0.8-5.4,1.8c-1.3,1-1.9,2.4-1.9,4.1c0,2.1,0.7,3.7,2.1,4.9c1.4,1.1,3.3,1.7,5.8,1.7h3.6c2.3,0,4.1-0.6,5.4-1.8
			c1.2-1.2,1.9-3,1.9-5.2c0-1.1-0.2-2.2-0.7-3.3c-0.5-1.1-1.1-2.1-1.9-3l3.6-3.6c1.3,1.4,2.4,3,3.1,4.7c0.7,1.7,1.1,3.5,1.1,5.2
			C-3484.5,1032.2-3485,1034.5-3485.9,1036.3z"/>
		<path class="st21" d="M-3507.7,997.7c-0.3,0.7-0.5,1.6-0.5,2.6c0,1.8,0.5,3.1,1.5,4.1c1,1,2.3,1.5,4,1.5l-5.4,0.6
			c-1.7-0.9-3-2-3.9-3.4s-1.4-2.9-1.4-4.6c0-1.3,0.2-2.4,0.6-3.5c0.4-1,0.9-2,1.6-2.7l4.9,3.6C-3507,996.4-3507.4,997-3507.7,997.7z
			 M-3513,1011.4v-5.5h28.2v5.5H-3513z"/>
		<path class="st21" d="M-3521.3,987.9l-9.6-7.8l3.3-4l9.1,8.3L-3521.3,987.9z M-3513,987.6v-5.5h28.2v5.5H-3513z"/>
		<path class="st21" d="M-3501.9,956.6c-2,0-3.5,0.5-4.6,1.5s-1.6,2.5-1.6,4.3c0,1.8,0.5,3.2,1.4,4.2c1,1,2.3,1.5,4,1.5l-5.4,0.6
			c-1.7-0.9-3-2-3.9-3.4c-0.9-1.4-1.4-3-1.4-4.7c0-3.1,1-5.4,3-7.1c2-1.7,4.8-2.5,8.5-2.5h17.1v5.5H-3501.9z M-3513,973.7v-5.5h28.2
			v5.5H-3513z"/>
		<path class="st21" d="M-3501.6,909.5h5.3v18.2h-5.3V909.5z"/>
		<path class="st21" d="M-3524.3,882.9v-22.1h5.3v22.1H-3524.3z M-3524.3,885.6v-5.5h39.5v5.5H-3524.3z M-3506.7,882.9v-19.1h5.3
			v19.1H-3506.7z"/>
		<path class="st21" d="M-3485.9,850.5c-1,1.7-2.4,3.1-4.2,4c-1.8,0.9-4,1.4-6.6,1.4h-4.6c-2.6,0-4.7-0.5-6.6-1.4
			c-1.8-0.9-3.2-2.2-4.2-4c-1-1.7-1.4-3.8-1.4-6.3s0.5-4.5,1.4-6.3c0.9-1.7,2.3-3.1,4.2-4c1.8-0.9,4-1.4,6.6-1.4h4.7
			c2.6,0,4.8,0.5,6.6,1.4c1.8,0.9,3.2,2.2,4.2,4s1.4,3.8,1.4,6.3S-3484.9,848.8-3485.9,850.5z M-3491.5,839.8
			c-1.2-1.1-2.9-1.6-5.1-1.6h-4.7c-2.2,0-3.9,0.5-5.1,1.6c-1.2,1.1-1.8,2.6-1.8,4.5s0.6,3.4,1.8,4.5c1.2,1.1,2.9,1.6,5.1,1.6h4.7
			c2.2,0,3.9-0.5,5.1-1.6c1.2-1.1,1.8-2.6,1.8-4.5S-3490.3,840.8-3491.5,839.8z"/>
		<path class="st21" d="M-3513,807.8v-5.5h28.2v5.5H-3513z M-3495.9,819.2c2,0,3.5-0.5,4.6-1.5c1.1-1,1.6-2.4,1.6-4.2
			c0-1.8-0.5-3.2-1.4-4.2s-2.3-1.5-4.1-1.5l5.9-0.4c1.4,0.6,2.6,1.5,3.5,2.8c0.9,1.3,1.4,2.9,1.4,4.8c0,3.1-1,5.5-3,7.2
			c-2,1.7-4.8,2.5-8.5,2.5h-17.1v-5.5H-3495.9z"/>
		<path class="st21" d="M-3501.9,776.8c-2,0-3.5,0.5-4.6,1.5c-1.1,1-1.6,2.5-1.6,4.3c0,1.8,0.5,3.2,1.4,4.2c1,1,2.3,1.5,4,1.5
			l-5.4,0.6c-1.7-0.9-3-2-3.9-3.4s-1.4-3-1.4-4.7c0-3.1,1-5.4,3-7.1c2-1.7,4.8-2.5,8.5-2.5h17.1v5.5H-3501.9z M-3513,793.9v-5.5
			h28.2v5.5H-3513z"/>
		<path class="st21" d="M-3524.3,746.8v-5.5h39.5v5.5H-3524.3z M-3485.7,759.2c-0.9,1.5-2.2,2.6-3.9,3.3c-1.7,0.8-3.8,1.1-6.2,1.1
			h-6.2c-2.4,0-4.5-0.4-6.2-1.1c-1.7-0.7-3-1.8-3.9-3.2s-1.3-3.1-1.3-5.1c0-1.7,0.4-3.2,1.3-4.6c0.9-1.4,2.1-2.5,3.7-3.4l5.8,0.6
			c-1.2,0-2.2,0.2-3.1,0.7c-0.9,0.4-1.5,1.1-1.9,1.9s-0.7,1.8-0.7,3c0,1.8,0.6,3.2,1.7,4.2c1.1,1,2.7,1.5,4.8,1.5h6.1
			c2,0,3.6-0.5,4.7-1.5c1.1-1,1.7-2.4,1.7-4.2c0-1.2-0.2-2.2-0.7-3c-0.5-0.8-1.1-1.5-2-1.9c-0.9-0.4-1.9-0.7-3.1-0.7l5.9-0.4
			c1.4,0.6,2.6,1.5,3.5,2.8c0.9,1.3,1.4,2.8,1.4,4.7C-3484.4,755.9-3484.8,757.7-3485.7,759.2z"/>
		<path class="st21" d="M-3485.9,728c-1,1.8-2.4,3.3-4.3,4.2c-1.9,1-4.2,1.5-6.9,1.5h-3.2c-2.8,0-5.2-0.5-7.1-1.4
			c-2-0.9-3.5-2.3-4.5-4.1c-1-1.8-1.5-3.9-1.5-6.4c0-2.4,0.6-4.4,1.8-6c1.2-1.7,2.9-2.9,5.1-3.8c2.2-0.9,4.9-1.3,8-1.3h1.8v19h-4.5
			v-13.7c-2.3,0.2-4.1,0.8-5.4,1.8c-1.3,1-1.9,2.4-1.9,4.1c0,2.1,0.7,3.7,2.1,4.9c1.4,1.1,3.3,1.7,5.8,1.7h3.6
			c2.3,0,4.1-0.6,5.4-1.8c1.2-1.2,1.9-3,1.9-5.2c0-1.1-0.2-2.2-0.7-3.3c-0.5-1.1-1.1-2.1-1.9-3l3.6-3.6c1.3,1.4,2.4,3,3.1,4.7
			c0.7,1.7,1.1,3.5,1.1,5.2C-3484.5,723.9-3485,726.1-3485.9,728z"/>
		<path class="st21" d="M-3513,686.5v-5.8l28.2,10.6v4.2L-3513,706v-5.8l20.1-6.9L-3513,686.5z"/>
		<path class="st21" d="M-3485.9,670.4c-1,1.8-2.4,3.3-4.3,4.2c-1.9,1-4.2,1.5-6.9,1.5h-3.2c-2.8,0-5.2-0.5-7.1-1.4
			c-2-0.9-3.5-2.3-4.5-4.1c-1-1.8-1.5-3.9-1.5-6.4c0-2.4,0.6-4.4,1.8-6c1.2-1.7,2.9-2.9,5.1-3.8c2.2-0.9,4.9-1.3,8-1.3h1.8v19h-4.5
			v-13.7c-2.3,0.2-4.1,0.8-5.4,1.8c-1.3,1-1.9,2.4-1.9,4.1c0,2.1,0.7,3.7,2.1,4.9c1.4,1.1,3.3,1.7,5.8,1.7h3.6
			c2.3,0,4.1-0.6,5.4-1.8c1.2-1.2,1.9-3,1.9-5.2c0-1.1-0.2-2.2-0.7-3.3c-0.5-1.1-1.1-2.1-1.9-3l3.6-3.6c1.3,1.4,2.4,3,3.1,4.7
			c0.7,1.7,1.1,3.5,1.1,5.2C-3484.5,666.3-3485,668.5-3485.9,670.4z"/>
		<path class="st21" d="M-3507.7,631.8c-0.3,0.7-0.5,1.6-0.5,2.6c0,1.8,0.5,3.1,1.5,4.1c1,1,2.3,1.5,4,1.5l-5.4,0.6
			c-1.7-0.9-3-2-3.9-3.4s-1.4-2.9-1.4-4.6c0-1.3,0.2-2.4,0.6-3.5c0.4-1,0.9-1.9,1.6-2.7l4.9,3.6
			C-3507,630.4-3507.4,631.1-3507.7,631.8z M-3513,645.4v-5.5h28.2v5.5H-3513z"/>
	</g>
</g>
<g>
	<path class="st3" d="M-3218.7,43.4c-1.7,3-3.3,6.1-5,9.1c-4.2,7.8-8.4,15.7-12.6,23.5c-0.3,0.6-0.7,1.2-1,1.8
		c-0.6,1.2-1.5,1.5-2.8,1.4c-1.7-0.2-3.4-0.3-5.2-0.5c0,0.5,0,0.9,0,1.3c0,43.3,0,86.5,0,129.8c0,1.4-0.4,2.5-1.8,3
		c-53.4,0-106.9,0-160.3,0c-1.3-0.6-1.7-1.6-1.7-3c0-46,0-92,0-138c0-0.4,0-0.8,0-1.3c-0.3,0-0.5-0.1-0.7-0.1
		c-8.5-0.4-17-0.7-25.4-1.1c-1.8-0.1-2.4-0.6-2.7-2.3c-0.2-0.9-0.4-1.8-0.6-2.7c0-0.4,0-0.9,0-1.3c0.4-1,1.2-1.5,2.2-1.8
		c8.6-2.5,17.3-4.8,26-6.6c1-0.2,1.3-0.6,1.3-1.6c-0.1-4.6,0-9.2,0-13.7c0-1.4,0.4-2.5,1.8-3c53.4,0,106.9,0,160.3,0
		c1.9,0.8,1.6,2.6,1.7,4.2c0.4,0,0.7,0,1,0c7.5-0.1,15.1-0.1,22.6-0.2c1.4,0,2.4,0.4,2.9,1.7C-3218.7,42.6-3218.7,43-3218.7,43.4z
		 M-3435.6,67.2c9.6,0.4,19.2,0.8,28.9,1.2c0,47.4,0,94.8,0,142.2c53.1,0,106.1,0,159.2,0c0-44.7,0-89.4,0-134.1c0.4,0,0.6,0,0.9,0
		c2.1,0.2,4.3,0.3,6.4,0.5c0.7,0.1,1.1-0.1,1.4-0.8c5.8-10.8,11.5-21.6,17.3-32.5c0.2-0.3,0.3-0.6,0.5-1c-8.9,0.1-17.7,0.2-26.5,0.3
		c0-1.5,0-2.8,0-4.2c-53.1,0-106.1,0-159.2,0c0,0.4,0,0.8,0,1.2c0,5,0,10,0,15c0,1-0.2,1.4-1.3,1.6c-9.3,1.9-18.5,4.3-27.7,7
		c-0.2,0.1-0.4,0.2-0.6,0.3C-3436,65-3435.8,66-3435.6,67.2z"/>
	<path d="M-3435.6,67.2c-0.2-1.1-0.4-2.2-0.6-3.3c0.2-0.1,0.4-0.2,0.6-0.3c9.1-2.7,18.3-5.1,27.7-7c1-0.2,1.3-0.6,1.3-1.6
		c-0.1-5,0-10,0-15c0-0.4,0-0.7,0-1.2c53.1,0,106.1,0,159.2,0c0,1.4,0,2.7,0,4.2c8.9-0.1,17.6-0.2,26.5-0.3c-0.2,0.4-0.3,0.7-0.5,1
		c-5.8,10.8-11.6,21.6-17.3,32.5c-0.3,0.6-0.7,0.9-1.4,0.8c-2.1-0.2-4.3-0.4-6.4-0.5c-0.3,0-0.5,0-0.9,0c0,44.7,0,89.4,0,134.1
		c-53.1,0-106.1,0-159.2,0c0-47.4,0-94.7,0-142.2C-3416.4,68-3425.9,67.6-3435.6,67.2z M-3228.9,47.4c-0.4,0-0.6,0-0.8,0
		c-10.2,0.1-20.5,0.2-30.7,0.4c-7.8,0.1-15.7,0.2-23.5,0.5c-10.6,0.4-21.2,0.9-31.8,1.4c-6.7,0.3-13.3,0.8-20,1.3
		c-7.8,0.7-15.6,1.4-23.4,2.3c-8.3,1-16.6,2-24.8,3.4c-9.4,1.6-18.8,3.6-28.2,5.4c-1.6,0.3-3.2,0.7-4.9,1.1c0.2,0.2,0.4,0.2,0.5,0.2
		c11.2,0.2,22.4,0.3,33.6,0.5c9.2,0.2,18.3,0.5,27.5,0.8c8.2,0.3,16.5,0.7,24.7,1.1c6,0.3,12,0.6,17.9,1c7.3,0.4,14.7,0.9,22,1.4
		c5.4,0.4,10.8,0.7,16.3,1.2c5.9,0.4,11.8,0.9,17.7,1.4c4.7,0.4,9.3,0.8,14,1.2c0.7,0.1,1-0.1,1.4-0.7c4.1-7.7,8.1-15.3,12.2-23
		C-3229.2,48-3229.1,47.8-3228.9,47.4z M-3344.2,175.8c0.1,0.1,0.3,0.1,0.4,0.2c0.8-0.5,1.6-1,2.3-1.6c1.2-1.3,2.3-2.7,3.2-4.2
		c3.2-5.1,5.5-10.7,7.6-16.4c6.6-17.7,11.5-35.7,14.6-54.3c0.8-4.7,1.4-9.4,1.1-14.1c-0.1-1.5-0.4-3-0.9-4.5
		c-0.3-1.1-0.9-1.2-1.7-0.4c-1.1,1.1-2.1,2.2-2.9,3.5c-2.6,4-4.5,8.4-6.2,12.8c-7.5,18.8-13.2,38.2-16.8,58.2
		c-1,5.5-1.7,11-1.4,16.6C-3344.6,173-3344.3,174.4-3344.2,175.8z M-3327.4,202.1c-0.1,0-0.1,0-0.2,0c0-0.1-0.1-0.3-0.1-0.4
		c-0.9-3.2-1.8-6.4-2.7-9.6c-0.1-0.3-0.3-0.7-0.5-0.7c-1.2-0.1-2.5,0-3.7,0c0,5.1,0,10,0,14.9c0.8,0,1.6,0,2.5,0c0-3.9,0-7.7,0-11.6
		c0.2,0.2,0.3,0.4,0.4,0.7c1,3.4,2,6.8,2.9,10.2c0.2,0.7,0.5,0.8,1.1,0.8c0.6,0,1.1,0.1,1.4-0.8c1-3.4,2-6.8,3.1-10.2
		c0.1-0.3,0.2-0.5,0.2-0.8c0.1,0,0.2,0,0.2,0.1c0,3.9,0,7.8,0,11.7c0.9,0,1.6,0,2.4,0c0-5,0-10,0-15c-1,0-2,0.1-3,0
		c-0.8-0.1-1,0.2-1.2,0.9C-3325.5,195.5-3326.5,198.7-3327.4,202.1z M-3283.2,195.2c0.1,0,0.1,0,0.2,0c0.1,0.2,0.2,0.4,0.3,0.6
		c1.4,3.3,2.8,6.5,4.2,9.8c0.1,0.3,0.4,0.7,0.7,0.7c1,0.1,1.9,0,2.9,0c0-5.1,0-10,0-15c-0.8,0-1.6,0-2.5,0c0,3.8,0,7.5,0,11.3
		c-0.3-0.3-0.4-0.5-0.5-0.8c-1.4-3.3-2.8-6.5-4.1-9.8c-0.1-0.3-0.4-0.7-0.6-0.7c-1-0.1-2,0-3,0c0,5.1,0,10,0,15c0.8,0,1.6,0,2.5,0
		C-3283.2,202.5-3283.2,198.8-3283.2,195.2z M-3351.2,206.3c0-5.1,0-10,0-15c-0.8,0-1.6,0-2.5,0c0,3.8,0,7.5,0,11.3
		c-1.6-3.5-3.1-7-4.6-10.5c-0.1-0.3-0.5-0.7-0.7-0.8c-0.9-0.1-1.9,0-2.8,0c0,5,0,10,0,14.9c0.8,0,1.6,0,2.5,0c0-3.8,0-7.4,0-11.1
		c0.3,0.2,0.4,0.4,0.5,0.6c1.4,3.3,2.8,6.6,4.2,9.8c0.1,0.3,0.5,0.7,0.7,0.7C-3353.1,206.3-3352.2,206.3-3351.2,206.3z
		 M-3386.9,199.9c1.7-0.1,2.3,0.3,2.8,1.7c0.4,1.3,0.8,2.7,1.2,4c0.1,0.2,0.3,0.6,0.5,0.6c0.8,0.1,1.7,0,2.6,0
		c-0.7-1.9-1.3-3.7-1.9-5.5c-0.3-0.8-0.8-1.4-1.2-2.1c1.7-0.6,2.7-2,2.4-4c-0.3-2-1.5-3.2-3.6-3.4c-0.9-0.1-1.7,0-2.6-0.1
		c-1,0-2,0-3,0c0,5.1,0,10,0,14.9c0.9,0,1.8,0,2.8,0C-3386.9,204-3386.9,202-3386.9,199.9z M-3264.1,198.6c0.4,1.6,0.6,3.2,1.2,4.6
		c0.9,2.1,2.7,3.2,5,3.2c2.4,0,4.2-1.1,5.1-3.2c1.3-3,1.3-6.1,0-9c-1-2.2-2.8-3.2-5.1-3.2c-2.2,0-4,1.1-4.9,3.1
		C-3263.4,195.5-3263.7,197.1-3264.1,198.6z M-3365,206.1c-0.1-0.4-0.2-0.7-0.3-1c-1.3-4-2.6-8-3.9-12c-0.6-1.9-0.6-1.9-2.7-2
		c-0.8,0-1.1,0.2-1.3,0.9c-1.4,4.4-2.9,8.7-4.4,13.1c-0.1,0.3-0.2,0.6-0.3,1.1c0.9,0,1.6,0,2.4,0c0.2,0,0.5-0.3,0.5-0.6
		c0.3-0.8,0.5-1.6,0.7-2.4c0.1-0.4,0.3-0.6,0.8-0.6c1.3,0,2.6,0,3.8,0c0.5,0,0.8,0.1,0.9,0.7c0,0.3,0.2,0.5,0.2,0.8
		c0.7,2.4,0.7,2.4,3.1,2.1C-3365.2,206.2-3365.2,206.2-3365,206.1z M-3294.9,193.5c1.2,0,2.2,0,3.3,0c2,0,2,0,1.7-2
		c0,0,0-0.1-0.1-0.1c-2.5,0-5.1,0-7.7,0c0,5,0,10,0,14.9c2.7,0,5.4,0,8.1,0c0-0.4,0-0.7,0-1.1c0.1-0.9-0.2-1.2-1.1-1.1
		c-1.4,0.1-2.8,0-4.2,0c0-1.5,0-2.9,0-4.4c1.6,0,3.2,0,4.7,0c0-0.8,0-1.4,0-2.2c-1.6,0-3.1,0-4.7,0
		C-3294.9,196.1-3294.9,194.8-3294.9,193.5z M-3339.4,191.3c-1.5-0.1-2.9-0.3-4.2-0.2c-1.9,0.1-3.2,1.4-3.6,3
		c-0.4,1.7,0.2,3.4,1.8,4.5c1,0.7,2,1.2,3,1.8c0.8,0.5,1.1,1.2,0.9,2.1c-0.2,1-0.8,1.5-1.8,1.6c-0.4,0.1-0.8,0.1-1.2,0
		c-0.8-0.2-1.6-0.5-2.5-0.7c0,0.5,0,1-0.1,1.4c-0.2,0.8,0.2,1.2,0.9,1.2c1.3,0.1,2.7,0.3,4,0.1c1.8-0.2,3-1.3,3.5-3.2
		c0.4-2.1-0.2-3.7-1.9-4.8c-0.9-0.6-1.8-1-2.7-1.6c-1-0.6-1.3-1.4-1.1-2.3c0.2-0.8,0.9-1.2,2.1-1.1c0.9,0.1,1.8,0.3,2.7,0.4
		C-3339.5,193.1-3339.4,192.4-3339.4,191.3z M-3396.2,193.5c1.1,0,2.2,0,3.2,0c0-0.8,0-1.4,0-2.1c-3.1,0-6.2,0-9.4,0
		c0,0.7,0,1.4,0,2.2c1.1,0,2.2,0,3.3,0c0,4.3,0,8.5,0,12.7c1,0,1.8,0,2.8,0C-3396.2,201.9-3396.2,197.7-3396.2,193.5z
		 M-3305.9,204.1c0-1,0-1.8,0-2.6c0-3.1,0-6.3,0-9.4c0-0.3-0.2-0.8-0.4-0.8c-0.8-0.1-1.6,0-2.3,0c0,5.1,0,10,0,15c2.6,0,5.1,0,7.6,0
		c0-0.7,0-1.4,0-2.1C-3302.7,204.1-3304.2,204.1-3305.9,204.1z M-3313.1,206.2c0-5,0-10,0-14.9c-0.9,0-1.8,0-2.7,0c0,5,0,10,0,14.9
		C-3314.9,206.2-3314,206.2-3313.1,206.2z M-3270.5,191.3c0,5,0,10,0,14.9c0.9,0,1.8,0,2.7,0c0-5,0-9.9,0-14.9
		C-3268.7,191.3-3269.6,191.3-3270.5,191.3z"/>
	<path class="st22" d="M-3228.9,47.4c-0.2,0.4-0.3,0.6-0.4,0.9c-4.1,7.6-8.2,15.3-12.2,23c-0.3,0.6-0.7,0.8-1.4,0.7
		c-4.6-0.4-9.3-0.8-14-1.2c-5.9-0.5-11.8-1-17.7-1.4c-5.4-0.4-10.8-0.8-16.3-1.2c-7.3-0.5-14.7-1-22-1.4c-6-0.4-11.9-0.7-17.9-1
		c-8.2-0.4-16.5-0.8-24.7-1.1c-9.2-0.3-18.3-0.6-27.5-0.8c-11.2-0.2-22.4-0.3-33.6-0.5c-0.2,0-0.3,0-0.5-0.2
		c1.6-0.4,3.2-0.8,4.9-1.1c9.4-1.8,18.8-3.8,28.2-5.4c8.2-1.4,16.5-2.4,24.8-3.4c7.8-0.9,15.6-1.7,23.4-2.3c6.7-0.6,13.3-1,20-1.3
		c10.6-0.5,21.2-1,31.8-1.4c7.8-0.3,15.7-0.4,23.5-0.5c10.2-0.2,20.5-0.3,30.7-0.4C-3229.5,47.4-3229.2,47.4-3228.9,47.4z"/>
	<path class="st22" d="M-3344.2,175.8c-0.2-1.4-0.5-2.8-0.6-4.2c-0.3-5.6,0.4-11.1,1.4-16.6c3.5-20,9.3-39.3,16.8-58.2
		c1.8-4.4,3.7-8.8,6.2-12.8c0.8-1.3,1.8-2.4,2.9-3.5c0.8-0.8,1.3-0.7,1.7,0.4c0.4,1.4,0.8,3,0.9,4.5c0.2,4.7-0.4,9.4-1.1,14.1
		c-3.1,18.6-8,36.7-14.6,54.3c-2.1,5.7-4.4,11.3-7.6,16.4c-0.9,1.5-2.1,2.9-3.2,4.2c-0.6,0.7-1.5,1.1-2.3,1.6
		C-3343.9,176-3344,175.9-3344.2,175.8z"/>
	<path class="st3" d="M-3327.4,202.1c0.9-3.3,1.9-6.6,2.8-9.9c0.2-0.7,0.5-1,1.2-0.9c1,0.1,1.9,0,3,0c0,5,0,10,0,15
		c-0.8,0-1.5,0-2.4,0c0-3.9,0-7.8,0-11.7c-0.1,0-0.2,0-0.2-0.1c-0.1,0.3-0.2,0.5-0.2,0.8c-1,3.4-2.1,6.8-3.1,10.2
		c-0.2,0.9-0.8,0.7-1.4,0.8c-0.6,0-0.9-0.1-1.1-0.8c-0.9-3.4-1.9-6.8-2.9-10.2c-0.1-0.2-0.1-0.5-0.4-0.7c0,3.8,0,7.7,0,11.6
		c-0.9,0-1.7,0-2.5,0c0-5,0-9.9,0-14.9c1.3,0,2.5,0,3.7,0c0.2,0,0.4,0.4,0.5,0.7c0.9,3.2,1.8,6.4,2.7,9.6c0,0.1,0.1,0.3,0.1,0.4
		C-3327.5,202-3327.4,202-3327.4,202.1z"/>
	<path class="st3" d="M-3283.2,195.2c0,3.6,0,7.3,0,11c-0.9,0-1.6,0-2.5,0c0-5,0-9.9,0-15c1,0,2,0,3,0c0.2,0,0.4,0.4,0.6,0.7
		c1.4,3.2,2.8,6.5,4.1,9.8c0.1,0.3,0.2,0.6,0.5,0.8c0-3.7,0-7.5,0-11.3c0.9,0,1.7,0,2.5,0c0,5,0,9.9,0,15c-1,0-2,0-2.9,0
		c-0.2,0-0.5-0.4-0.7-0.7c-1.4-3.2-2.8-6.5-4.2-9.8c-0.1-0.2-0.2-0.4-0.3-0.6C-3283.1,195.2-3283.2,195.2-3283.2,195.2z"/>
	<path class="st3" d="M-3351.2,206.3c-1,0-1.9,0.1-2.8,0c-0.3,0-0.6-0.4-0.7-0.7c-1.4-3.3-2.8-6.5-4.2-9.8c-0.1-0.2-0.2-0.4-0.5-0.6
		c0,3.7,0,7.4,0,11.1c-0.9,0-1.7,0-2.5,0c0-5,0-9.9,0-14.9c1,0,1.9-0.1,2.8,0c0.3,0,0.6,0.5,0.7,0.8c1.5,3.5,3,7,4.6,10.5
		c0-3.7,0-7.5,0-11.3c0.9,0,1.7,0,2.5,0C-3351.2,196.3-3351.2,201.2-3351.2,206.3z"/>
	<path class="st3" d="M-3386.9,199.9c0,2.1,0,4.2,0,6.3c-0.9,0-1.8,0-2.8,0c0-4.9,0-9.8,0-14.9c1,0,2,0,3,0c0.9,0,1.7,0,2.6,0.1
		c2.1,0.2,3.3,1.3,3.6,3.4c0.2,1.9-0.7,3.4-2.4,4c0.4,0.7,0.9,1.3,1.2,2.1c0.7,1.8,1.3,3.5,1.9,5.5c-1,0-1.8,0-2.6,0
		c-0.2,0-0.4-0.4-0.5-0.6c-0.4-1.3-0.8-2.7-1.2-4C-3384.7,200.1-3385.3,199.7-3386.9,199.9z M-3387,197.7c1.2,0,2.4,0.2,3.1-1
		c0.5-0.8,0.5-1.8,0-2.6c-0.8-1.1-2-0.8-3.1-0.8C-3387,194.9-3387,196.2-3387,197.7z"/>
	<path class="st3" d="M-3264.1,198.6c0.4-1.5,0.7-3.1,1.3-4.5c0.9-2,2.7-3.1,4.9-3.1c2.3,0,4.2,1,5.1,3.2c1.3,3,1.3,6.1,0,9
		c-1,2.1-2.8,3.2-5.1,3.2c-2.3,0-4.1-1.1-5-3.2C-3263.5,201.8-3263.7,200.2-3264.1,198.6z M-3254.6,198.8c-0.3-1.3-0.4-2.6-0.8-3.8
		c-0.4-1.1-1.2-1.9-2.5-1.9c-1.3,0-2.1,0.8-2.5,1.9c-0.9,2.5-0.9,5,0,7.4c0.4,1.1,1.2,1.9,2.4,1.9c1.2,0,2.2-0.6,2.6-1.9
		C-3255,201.3-3254.8,200.1-3254.6,198.8z"/>
	<path class="st3" d="M-3365,206.1c-0.2,0.1-0.2,0.1-0.3,0.1c-2.4,0.2-2.4,0.2-3.1-2.1c-0.1-0.3-0.2-0.5-0.2-0.8
		c-0.1-0.5-0.4-0.7-0.9-0.7c-1.3,0-2.6,0-3.8,0c-0.5,0-0.7,0.2-0.8,0.6c-0.2,0.8-0.4,1.6-0.7,2.4c-0.1,0.2-0.3,0.6-0.5,0.6
		c-0.7,0.1-1.5,0-2.4,0c0.1-0.4,0.2-0.8,0.3-1.1c1.5-4.4,2.9-8.7,4.4-13.1c0.2-0.7,0.5-0.9,1.3-0.9c2.1,0.1,2.1,0,2.7,2
		c1.3,4,2.6,8,3.9,12C-3365.2,205.5-3365.1,205.8-3365,206.1z M-3371.2,193.9c-0.1,0-0.1,0-0.2,0c-0.6,2.2-1.3,4.4-1.9,6.6
		c1.3,0,2.6,0,3.9,0C-3370.1,198.2-3370.7,196-3371.2,193.9z"/>
	<path class="st3" d="M-3294.9,193.5c0,1.4,0,2.6,0,4c1.6,0,3.1,0,4.7,0c0,0.8,0,1.4,0,2.2c-1.6,0-3.1,0-4.7,0c0,1.5,0,2.9,0,4.4
		c1.4,0,2.8,0.1,4.2,0c0.9-0.1,1.2,0.2,1.1,1.1c0,0.3,0,0.7,0,1.1c-2.7,0-5.4,0-8.1,0c0-5,0-9.9,0-14.9c2.6,0,5.2,0,7.7,0
		c0,0.1,0.1,0.1,0.1,0.1c0.3,2,0.3,2-1.7,2C-3292.7,193.5-3293.8,193.5-3294.9,193.5z"/>
	<path class="st3" d="M-3339.4,191.3c-0.1,1-0.1,1.7-0.2,2.4c-1-0.2-1.8-0.4-2.7-0.4c-1.1-0.1-1.9,0.4-2.1,1.1
		c-0.3,0.9,0.1,1.7,1.1,2.3c0.9,0.5,1.8,1,2.7,1.6c1.7,1.1,2.3,2.7,1.9,4.8c-0.4,1.9-1.6,3-3.5,3.2c-1.3,0.2-2.7,0-4-0.1
		c-0.7,0-1.1-0.4-0.9-1.2c0.1-0.5,0.1-1,0.1-1.4c0.9,0.3,1.7,0.5,2.5,0.7c0.4,0.1,0.8,0.1,1.2,0c0.9-0.2,1.6-0.6,1.8-1.6
		c0.2-0.9-0.2-1.6-0.9-2.1c-1-0.6-2-1.2-3-1.8c-1.5-1.1-2.2-2.7-1.8-4.5c0.4-1.7,1.7-2.9,3.6-3
		C-3342.3,191.1-3340.9,191.3-3339.4,191.3z"/>
	<path class="st3" d="M-3396.2,193.5c0,4.3,0,8.5,0,12.7c-0.9,0-1.8,0-2.8,0c0-4.2,0-8.4,0-12.7c-1.2,0-2.2,0-3.3,0
		c0-0.8,0-1.5,0-2.2c3.1,0,6.2,0,9.4,0c0,0.7,0,1.4,0,2.1C-3394.1,193.5-3395.1,193.5-3396.2,193.5z"/>
	<path class="st3" d="M-3305.9,204.1c1.7,0,3.2,0,4.9,0c0,0.7,0,1.4,0,2.1c-2.5,0-5,0-7.6,0c0-5,0-9.9,0-15c0.8,0,1.5,0,2.3,0
		c0.2,0,0.4,0.5,0.4,0.8c0,3.1,0,6.3,0,9.4C-3305.9,202.3-3305.9,203.1-3305.9,204.1z"/>
	<path class="st3" d="M-3313.1,206.2c-0.9,0-1.7,0-2.7,0c0-5,0-9.9,0-14.9c0.9,0,1.7,0,2.7,0
		C-3313.1,196.2-3313.1,201.2-3313.1,206.2z"/>
	<path class="st3" d="M-3270.5,191.3c0.9,0,1.7,0,2.7,0c0,5,0,9.9,0,14.9c-0.9,0-1.7,0-2.7,0
		C-3270.5,201.2-3270.5,196.3-3270.5,191.3z"/>
	<path d="M-3387,197.7c0-1.5,0-2.9,0-4.3c1.2,0,2.4-0.3,3.1,0.8c0.6,0.8,0.5,1.8,0,2.6C-3384.5,197.9-3385.7,197.7-3387,197.7z"/>
	<path d="M-3254.6,198.8c-0.3,1.2-0.4,2.5-0.8,3.6c-0.4,1.3-1.4,1.9-2.6,1.9c-1.3,0-2-0.8-2.4-1.9c-0.9-2.5-0.9-5,0-7.4
		c0.4-1.1,1.2-1.8,2.5-1.9c1.3,0,2.2,0.7,2.5,1.9C-3255,196.2-3254.8,197.5-3254.6,198.8z"/>
	<path d="M-3371.2,193.9c0.6,2.2,1.2,4.3,1.8,6.6c-1.3,0-2.6,0-3.9,0c0.7-2.2,1.3-4.4,1.9-6.6
		C-3371.4,193.8-3371.3,193.9-3371.2,193.9z"/>
</g>
<g>
	<path class="st3" d="M-3474.7,43.4c-1.7,3-3.3,6.1-5,9.1c-4.2,7.8-8.4,15.7-12.6,23.5c-0.3,0.6-0.7,1.2-1,1.8
		c-0.6,1.2-1.5,1.5-2.8,1.4c-1.7-0.2-3.4-0.3-5.2-0.5c0,0.5,0,0.9,0,1.3c0,43.3,0,86.5,0,129.8c0,1.4-0.4,2.5-1.8,3
		c-53.4,0-106.9,0-160.3,0c-1.3-0.6-1.7-1.6-1.7-3c0-46,0-92,0-138c0-0.4,0-0.8,0-1.3c-0.3,0-0.5-0.1-0.7-0.1
		c-8.5-0.4-17-0.7-25.4-1.1c-1.8-0.1-2.4-0.6-2.7-2.3c-0.2-0.9-0.4-1.8-0.6-2.7c0-0.4,0-0.9,0-1.3c0.4-1,1.2-1.5,2.2-1.8
		c8.6-2.5,17.3-4.8,26-6.6c1-0.2,1.3-0.6,1.3-1.6c-0.1-4.6,0-9.2,0-13.7c0-1.4,0.4-2.5,1.8-3c53.4,0,106.9,0,160.3,0
		c1.9,0.8,1.6,2.6,1.7,4.2c0.4,0,0.7,0,1,0c7.5-0.1,15.1-0.1,22.6-0.2c1.4,0,2.4,0.4,2.9,1.7C-3474.7,42.6-3474.7,43-3474.7,43.4z
		 M-3691.6,67.2c9.6,0.4,19.2,0.8,28.9,1.2c0,47.4,0,94.8,0,142.2c53.1,0,106.1,0,159.2,0c0-44.7,0-89.4,0-134.1c0.4,0,0.6,0,0.9,0
		c2.1,0.2,4.3,0.3,6.4,0.5c0.7,0.1,1.1-0.1,1.4-0.8c5.8-10.8,11.5-21.6,17.3-32.5c0.2-0.3,0.3-0.6,0.5-1c-8.9,0.1-17.7,0.2-26.5,0.3
		c0-1.5,0-2.8,0-4.2c-53.1,0-106.1,0-159.2,0c0,0.4,0,0.8,0,1.2c0,5,0,10,0,15c0,1-0.2,1.4-1.3,1.6c-9.3,1.9-18.5,4.3-27.7,7
		c-0.2,0.1-0.4,0.2-0.6,0.3C-3692,65-3691.8,66-3691.6,67.2z"/>
	<path d="M-3691.6,67.2c-0.2-1.1-0.4-2.2-0.6-3.3c0.2-0.1,0.4-0.2,0.6-0.3c9.1-2.7,18.3-5.1,27.7-7c1-0.2,1.3-0.6,1.3-1.6
		c-0.1-5,0-10,0-15c0-0.4,0-0.7,0-1.2c53.1,0,106.1,0,159.2,0c0,1.4,0,2.7,0,4.2c8.9-0.1,17.6-0.2,26.5-0.3c-0.2,0.4-0.3,0.7-0.5,1
		c-5.8,10.8-11.6,21.6-17.3,32.5c-0.3,0.6-0.7,0.9-1.4,0.8c-2.1-0.2-4.3-0.4-6.4-0.5c-0.3,0-0.5,0-0.9,0c0,44.7,0,89.4,0,134.1
		c-53.1,0-106.1,0-159.2,0c0-47.4,0-94.7,0-142.2C-3672.4,68-3681.9,67.6-3691.6,67.2z M-3484.9,47.4c-0.4,0-0.6,0-0.8,0
		c-10.2,0.1-20.5,0.2-30.7,0.4c-7.8,0.1-15.7,0.2-23.5,0.5c-10.6,0.4-21.2,0.9-31.8,1.4c-6.7,0.3-13.3,0.8-20,1.3
		c-7.8,0.7-15.6,1.4-23.4,2.3c-8.3,1-16.6,2-24.8,3.4c-9.4,1.6-18.8,3.6-28.2,5.4c-1.6,0.3-3.2,0.7-4.9,1.1c0.2,0.2,0.4,0.2,0.5,0.2
		c11.2,0.2,22.4,0.3,33.6,0.5c9.2,0.2,18.3,0.5,27.5,0.8c8.2,0.3,16.5,0.7,24.7,1.1c6,0.3,12,0.6,17.9,1c7.3,0.4,14.7,0.9,22,1.4
		c5.4,0.4,10.8,0.7,16.3,1.2c5.9,0.4,11.8,0.9,17.7,1.4c4.7,0.4,9.3,0.8,14,1.2c0.7,0.1,1-0.1,1.4-0.7c4.1-7.7,8.1-15.3,12.2-23
		C-3485.2,48-3485.1,47.8-3484.9,47.4z M-3600.2,175.8c0.1,0.1,0.3,0.1,0.4,0.2c0.8-0.5,1.6-1,2.3-1.6c1.2-1.3,2.3-2.7,3.2-4.2
		c3.2-5.1,5.5-10.7,7.6-16.4c6.6-17.7,11.5-35.7,14.6-54.3c0.8-4.7,1.4-9.4,1.1-14.1c-0.1-1.5-0.4-3-0.9-4.5
		c-0.3-1.1-0.9-1.2-1.7-0.4c-1.1,1.1-2.1,2.2-2.9,3.5c-2.6,4-4.5,8.4-6.2,12.8c-7.5,18.8-13.2,38.2-16.8,58.2
		c-1,5.5-1.7,11-1.4,16.6C-3600.6,173-3600.3,174.4-3600.2,175.8z M-3583.4,202.1c-0.1,0-0.1,0-0.2,0c0-0.1-0.1-0.3-0.1-0.4
		c-0.9-3.2-1.8-6.4-2.7-9.6c-0.1-0.3-0.3-0.7-0.5-0.7c-1.2-0.1-2.5,0-3.7,0c0,5.1,0,10,0,14.9c0.8,0,1.6,0,2.5,0c0-3.9,0-7.7,0-11.6
		c0.2,0.2,0.3,0.4,0.4,0.7c1,3.4,2,6.8,2.9,10.2c0.2,0.7,0.5,0.8,1.1,0.8c0.6,0,1.1,0.1,1.4-0.8c1-3.4,2-6.8,3.1-10.2
		c0.1-0.3,0.2-0.5,0.2-0.8c0.1,0,0.2,0,0.2,0.1c0,3.9,0,7.8,0,11.7c0.9,0,1.6,0,2.4,0c0-5,0-10,0-15c-1,0-2,0.1-3,0
		c-0.8-0.1-1,0.2-1.2,0.9C-3581.5,195.5-3582.5,198.7-3583.4,202.1z M-3539.2,195.2c0.1,0,0.1,0,0.2,0c0.1,0.2,0.2,0.4,0.3,0.6
		c1.4,3.3,2.8,6.5,4.2,9.8c0.1,0.3,0.4,0.7,0.7,0.7c1,0.1,1.9,0,2.9,0c0-5.1,0-10,0-15c-0.8,0-1.6,0-2.5,0c0,3.8,0,7.5,0,11.3
		c-0.3-0.3-0.4-0.5-0.5-0.8c-1.4-3.3-2.8-6.5-4.1-9.8c-0.1-0.3-0.4-0.7-0.6-0.7c-1-0.1-2,0-3,0c0,5.1,0,10,0,15c0.8,0,1.6,0,2.5,0
		C-3539.2,202.5-3539.2,198.8-3539.2,195.2z M-3607.2,206.3c0-5.1,0-10,0-15c-0.8,0-1.6,0-2.5,0c0,3.8,0,7.5,0,11.3
		c-1.6-3.5-3.1-7-4.6-10.5c-0.1-0.3-0.5-0.7-0.7-0.8c-0.9-0.1-1.9,0-2.8,0c0,5,0,10,0,14.9c0.8,0,1.6,0,2.5,0c0-3.8,0-7.4,0-11.1
		c0.3,0.2,0.4,0.4,0.5,0.6c1.4,3.3,2.8,6.6,4.2,9.8c0.1,0.3,0.5,0.7,0.7,0.7C-3609.1,206.3-3608.2,206.3-3607.2,206.3z
		 M-3642.9,199.9c1.7-0.1,2.3,0.3,2.8,1.7c0.4,1.3,0.8,2.7,1.2,4c0.1,0.2,0.3,0.6,0.5,0.6c0.8,0.1,1.7,0,2.6,0
		c-0.7-1.9-1.3-3.7-1.9-5.5c-0.3-0.8-0.8-1.4-1.2-2.1c1.7-0.6,2.7-2,2.4-4c-0.3-2-1.5-3.2-3.6-3.4c-0.9-0.1-1.7,0-2.6-0.1
		c-1,0-2,0-3,0c0,5.1,0,10,0,14.9c0.9,0,1.8,0,2.8,0C-3642.9,204-3642.9,202-3642.9,199.9z M-3520.1,198.6c0.4,1.6,0.6,3.2,1.2,4.6
		c0.9,2.1,2.7,3.2,5,3.2c2.4,0,4.2-1.1,5.1-3.2c1.3-3,1.3-6.1,0-9c-1-2.2-2.8-3.2-5.1-3.2c-2.2,0-4,1.1-4.9,3.1
		C-3519.4,195.5-3519.7,197.1-3520.1,198.6z M-3621,206.1c-0.1-0.4-0.2-0.7-0.3-1c-1.3-4-2.6-8-3.9-12c-0.6-1.9-0.6-1.9-2.7-2
		c-0.8,0-1.1,0.2-1.3,0.9c-1.4,4.4-2.9,8.7-4.4,13.1c-0.1,0.3-0.2,0.6-0.3,1.1c0.9,0,1.6,0,2.4,0c0.2,0,0.5-0.3,0.5-0.6
		c0.3-0.8,0.5-1.6,0.7-2.4c0.1-0.4,0.3-0.6,0.8-0.6c1.3,0,2.6,0,3.8,0c0.5,0,0.8,0.1,0.9,0.7c0,0.3,0.2,0.5,0.2,0.8
		c0.7,2.4,0.7,2.4,3.1,2.1C-3621.2,206.2-3621.2,206.2-3621,206.1z M-3550.9,193.5c1.2,0,2.2,0,3.3,0c2,0,2,0,1.7-2
		c0,0,0-0.1-0.1-0.1c-2.5,0-5.1,0-7.7,0c0,5,0,10,0,14.9c2.7,0,5.4,0,8.1,0c0-0.4,0-0.7,0-1.1c0.1-0.9-0.2-1.2-1.1-1.1
		c-1.4,0.1-2.8,0-4.2,0c0-1.5,0-2.9,0-4.4c1.6,0,3.2,0,4.7,0c0-0.8,0-1.4,0-2.2c-1.6,0-3.1,0-4.7,0
		C-3550.9,196.1-3550.9,194.8-3550.9,193.5z M-3595.4,191.3c-1.5-0.1-2.9-0.3-4.2-0.2c-1.9,0.1-3.2,1.4-3.6,3
		c-0.4,1.7,0.2,3.4,1.8,4.5c1,0.7,2,1.2,3,1.8c0.8,0.5,1.1,1.2,0.9,2.1c-0.2,1-0.8,1.5-1.8,1.6c-0.4,0.1-0.8,0.1-1.2,0
		c-0.8-0.2-1.6-0.5-2.5-0.7c0,0.5,0,1-0.1,1.4c-0.2,0.8,0.2,1.2,0.9,1.2c1.3,0.1,2.7,0.3,4,0.1c1.8-0.2,3-1.3,3.5-3.2
		c0.4-2.1-0.2-3.7-1.9-4.8c-0.9-0.6-1.8-1-2.7-1.6c-1-0.6-1.3-1.4-1.1-2.3c0.2-0.8,0.9-1.2,2.1-1.1c0.9,0.1,1.8,0.3,2.7,0.4
		C-3595.5,193.1-3595.4,192.4-3595.4,191.3z M-3652.2,193.5c1.1,0,2.2,0,3.2,0c0-0.8,0-1.4,0-2.1c-3.1,0-6.2,0-9.4,0
		c0,0.7,0,1.4,0,2.2c1.1,0,2.2,0,3.3,0c0,4.3,0,8.5,0,12.7c1,0,1.8,0,2.8,0C-3652.2,201.9-3652.2,197.7-3652.2,193.5z
		 M-3561.9,204.1c0-1,0-1.8,0-2.6c0-3.1,0-6.3,0-9.4c0-0.3-0.2-0.8-0.4-0.8c-0.8-0.1-1.6,0-2.3,0c0,5.1,0,10,0,15c2.6,0,5.1,0,7.6,0
		c0-0.7,0-1.4,0-2.1C-3558.7,204.1-3560.2,204.1-3561.9,204.1z M-3569.1,206.2c0-5,0-10,0-14.9c-0.9,0-1.8,0-2.7,0c0,5,0,10,0,14.9
		C-3570.9,206.2-3570,206.2-3569.1,206.2z M-3526.5,191.3c0,5,0,10,0,14.9c0.9,0,1.8,0,2.7,0c0-5,0-9.9,0-14.9
		C-3524.7,191.3-3525.6,191.3-3526.5,191.3z"/>
	<path class="st22" d="M-3484.9,47.4c-0.2,0.4-0.3,0.6-0.4,0.9c-4.1,7.6-8.2,15.3-12.2,23c-0.3,0.6-0.7,0.8-1.4,0.7
		c-4.6-0.4-9.3-0.8-14-1.2c-5.9-0.5-11.8-1-17.7-1.4c-5.4-0.4-10.8-0.8-16.3-1.2c-7.3-0.5-14.7-1-22-1.4c-6-0.4-11.9-0.7-17.9-1
		c-8.2-0.4-16.5-0.8-24.7-1.1c-9.2-0.3-18.3-0.6-27.5-0.8c-11.2-0.2-22.4-0.3-33.6-0.5c-0.2,0-0.3,0-0.5-0.2
		c1.6-0.4,3.2-0.8,4.9-1.1c9.4-1.8,18.8-3.8,28.2-5.4c8.2-1.4,16.5-2.4,24.8-3.4c7.8-0.9,15.6-1.7,23.4-2.3c6.7-0.6,13.3-1,20-1.3
		c10.6-0.5,21.2-1,31.8-1.4c7.8-0.3,15.7-0.4,23.5-0.5c10.2-0.2,20.5-0.3,30.7-0.4C-3485.5,47.4-3485.2,47.4-3484.9,47.4z"/>
	<path class="st22" d="M-3600.2,175.8c-0.2-1.4-0.5-2.8-0.6-4.2c-0.3-5.6,0.4-11.1,1.4-16.6c3.5-20,9.3-39.3,16.8-58.2
		c1.8-4.4,3.7-8.8,6.2-12.8c0.8-1.3,1.8-2.4,2.9-3.5c0.8-0.8,1.3-0.7,1.7,0.4c0.4,1.4,0.8,3,0.9,4.5c0.2,4.7-0.4,9.4-1.1,14.1
		c-3.1,18.6-8,36.7-14.6,54.3c-2.1,5.7-4.4,11.3-7.6,16.4c-0.9,1.5-2.1,2.9-3.2,4.2c-0.6,0.7-1.5,1.1-2.3,1.6
		C-3599.9,176-3600,175.9-3600.2,175.8z"/>
	<path class="st3" d="M-3583.4,202.1c0.9-3.3,1.9-6.6,2.8-9.9c0.2-0.7,0.5-1,1.2-0.9c1,0.1,1.9,0,3,0c0,5,0,10,0,15
		c-0.8,0-1.5,0-2.4,0c0-3.9,0-7.8,0-11.7c-0.1,0-0.2,0-0.2-0.1c-0.1,0.3-0.2,0.5-0.2,0.8c-1,3.4-2.1,6.8-3.1,10.2
		c-0.2,0.9-0.8,0.7-1.4,0.8c-0.6,0-0.9-0.1-1.1-0.8c-0.9-3.4-1.9-6.8-2.9-10.2c-0.1-0.2-0.1-0.5-0.4-0.7c0,3.8,0,7.7,0,11.6
		c-0.9,0-1.7,0-2.5,0c0-5,0-9.9,0-14.9c1.3,0,2.5,0,3.7,0c0.2,0,0.4,0.4,0.5,0.7c0.9,3.2,1.8,6.4,2.7,9.6c0,0.1,0.1,0.3,0.1,0.4
		C-3583.5,202-3583.4,202-3583.4,202.1z"/>
	<path class="st3" d="M-3539.2,195.2c0,3.6,0,7.3,0,11c-0.9,0-1.6,0-2.5,0c0-5,0-9.9,0-15c1,0,2,0,3,0c0.2,0,0.4,0.4,0.6,0.7
		c1.4,3.2,2.8,6.5,4.1,9.8c0.1,0.3,0.2,0.6,0.5,0.8c0-3.7,0-7.5,0-11.3c0.9,0,1.7,0,2.5,0c0,5,0,9.9,0,15c-1,0-2,0-2.9,0
		c-0.2,0-0.5-0.4-0.7-0.7c-1.4-3.2-2.8-6.5-4.2-9.8c-0.1-0.2-0.2-0.4-0.3-0.6C-3539.1,195.2-3539.2,195.2-3539.2,195.2z"/>
	<path class="st3" d="M-3607.2,206.3c-1,0-1.9,0.1-2.8,0c-0.3,0-0.6-0.4-0.7-0.7c-1.4-3.3-2.8-6.5-4.2-9.8c-0.1-0.2-0.2-0.4-0.5-0.6
		c0,3.7,0,7.4,0,11.1c-0.9,0-1.7,0-2.5,0c0-5,0-9.9,0-14.9c1,0,1.9-0.1,2.8,0c0.3,0,0.6,0.5,0.7,0.8c1.5,3.5,3,7,4.6,10.5
		c0-3.7,0-7.5,0-11.3c0.9,0,1.7,0,2.5,0C-3607.2,196.3-3607.2,201.2-3607.2,206.3z"/>
	<path class="st3" d="M-3642.9,199.9c0,2.1,0,4.2,0,6.3c-0.9,0-1.8,0-2.8,0c0-4.9,0-9.8,0-14.9c1,0,2,0,3,0c0.9,0,1.7,0,2.6,0.1
		c2.1,0.2,3.3,1.3,3.6,3.4c0.2,1.9-0.7,3.4-2.4,4c0.4,0.7,0.9,1.3,1.2,2.1c0.7,1.8,1.3,3.5,1.9,5.5c-1,0-1.8,0-2.6,0
		c-0.2,0-0.4-0.4-0.5-0.6c-0.4-1.3-0.8-2.7-1.2-4C-3640.7,200.1-3641.3,199.7-3642.9,199.9z M-3643,197.7c1.2,0,2.4,0.2,3.1-1
		c0.5-0.8,0.5-1.8,0-2.6c-0.8-1.1-2-0.8-3.1-0.8C-3643,194.9-3643,196.2-3643,197.7z"/>
	<path class="st3" d="M-3520.1,198.6c0.4-1.5,0.7-3.1,1.3-4.5c0.9-2,2.7-3.1,4.9-3.1c2.3,0,4.2,1,5.1,3.2c1.3,3,1.3,6.1,0,9
		c-1,2.1-2.8,3.2-5.1,3.2c-2.3,0-4.1-1.1-5-3.2C-3519.5,201.8-3519.7,200.2-3520.1,198.6z M-3510.6,198.8c-0.3-1.3-0.4-2.6-0.8-3.8
		c-0.4-1.1-1.2-1.9-2.5-1.9c-1.3,0-2.1,0.8-2.5,1.9c-0.9,2.5-0.9,5,0,7.4c0.4,1.1,1.2,1.9,2.4,1.9c1.2,0,2.2-0.6,2.6-1.9
		C-3511,201.3-3510.8,200.1-3510.6,198.8z"/>
	<path class="st3" d="M-3621,206.1c-0.2,0.1-0.2,0.1-0.3,0.1c-2.4,0.2-2.4,0.2-3.1-2.1c-0.1-0.3-0.2-0.5-0.2-0.8
		c-0.1-0.5-0.4-0.7-0.9-0.7c-1.3,0-2.6,0-3.8,0c-0.5,0-0.7,0.2-0.8,0.6c-0.2,0.8-0.4,1.6-0.7,2.4c-0.1,0.2-0.3,0.6-0.5,0.6
		c-0.7,0.1-1.5,0-2.4,0c0.1-0.4,0.2-0.8,0.3-1.1c1.5-4.4,2.9-8.7,4.4-13.1c0.2-0.7,0.5-0.9,1.3-0.9c2.1,0.1,2.1,0,2.7,2
		c1.3,4,2.6,8,3.9,12C-3621.2,205.5-3621.1,205.8-3621,206.1z M-3627.2,193.9c-0.1,0-0.1,0-0.2,0c-0.6,2.2-1.3,4.4-1.9,6.6
		c1.3,0,2.6,0,3.9,0C-3626.1,198.2-3626.7,196-3627.2,193.9z"/>
	<path class="st3" d="M-3550.9,193.5c0,1.4,0,2.6,0,4c1.6,0,3.1,0,4.7,0c0,0.8,0,1.4,0,2.2c-1.6,0-3.1,0-4.7,0c0,1.5,0,2.9,0,4.4
		c1.4,0,2.8,0.1,4.2,0c0.9-0.1,1.2,0.2,1.1,1.1c0,0.3,0,0.7,0,1.1c-2.7,0-5.4,0-8.1,0c0-5,0-9.9,0-14.9c2.6,0,5.2,0,7.7,0
		c0,0.1,0.1,0.1,0.1,0.1c0.3,2,0.3,2-1.7,2C-3548.7,193.5-3549.8,193.5-3550.9,193.5z"/>
	<path class="st3" d="M-3595.4,191.3c-0.1,1-0.1,1.7-0.2,2.4c-1-0.2-1.8-0.4-2.7-0.4c-1.1-0.1-1.9,0.4-2.1,1.1
		c-0.3,0.9,0.1,1.7,1.1,2.3c0.9,0.5,1.8,1,2.7,1.6c1.7,1.1,2.3,2.7,1.9,4.8c-0.4,1.9-1.6,3-3.5,3.2c-1.3,0.2-2.7,0-4-0.1
		c-0.7,0-1.1-0.4-0.9-1.2c0.1-0.5,0.1-1,0.1-1.4c0.9,0.3,1.7,0.5,2.5,0.7c0.4,0.1,0.8,0.1,1.2,0c0.9-0.2,1.6-0.6,1.8-1.6
		c0.2-0.9-0.2-1.6-0.9-2.1c-1-0.6-2-1.2-3-1.8c-1.5-1.1-2.2-2.7-1.8-4.5c0.4-1.7,1.7-2.9,3.6-3
		C-3598.3,191.1-3596.9,191.3-3595.4,191.3z"/>
	<path class="st3" d="M-3652.2,193.5c0,4.3,0,8.5,0,12.7c-0.9,0-1.8,0-2.8,0c0-4.2,0-8.4,0-12.7c-1.2,0-2.2,0-3.3,0
		c0-0.8,0-1.5,0-2.2c3.1,0,6.2,0,9.4,0c0,0.7,0,1.4,0,2.1C-3650.1,193.5-3651.1,193.5-3652.2,193.5z"/>
	<path class="st3" d="M-3561.9,204.1c1.7,0,3.2,0,4.9,0c0,0.7,0,1.4,0,2.1c-2.5,0-5,0-7.6,0c0-5,0-9.9,0-15c0.8,0,1.5,0,2.3,0
		c0.2,0,0.4,0.5,0.4,0.8c0,3.1,0,6.3,0,9.4C-3561.9,202.3-3561.9,203.1-3561.9,204.1z"/>
	<path class="st3" d="M-3569.1,206.2c-0.9,0-1.7,0-2.7,0c0-5,0-9.9,0-14.9c0.9,0,1.7,0,2.7,0
		C-3569.1,196.2-3569.1,201.2-3569.1,206.2z"/>
	<path class="st3" d="M-3526.5,191.3c0.9,0,1.7,0,2.7,0c0,5,0,9.9,0,14.9c-0.9,0-1.7,0-2.7,0
		C-3526.5,201.2-3526.5,196.3-3526.5,191.3z"/>
	<path d="M-3643,197.7c0-1.5,0-2.9,0-4.3c1.2,0,2.4-0.3,3.1,0.8c0.6,0.8,0.5,1.8,0,2.6C-3640.5,197.9-3641.7,197.7-3643,197.7z"/>
	<path d="M-3510.6,198.8c-0.3,1.2-0.4,2.5-0.8,3.6c-0.4,1.3-1.4,1.9-2.6,1.9c-1.3,0-2-0.8-2.4-1.9c-0.9-2.5-0.9-5,0-7.4
		c0.4-1.1,1.2-1.8,2.5-1.9c1.3,0,2.2,0.7,2.5,1.9C-3511,196.2-3510.8,197.5-3510.6,198.8z"/>
	<path d="M-3627.2,193.9c0.6,2.2,1.2,4.3,1.8,6.6c-1.3,0-2.6,0-3.9,0c0.7-2.2,1.3-4.4,1.9-6.6
		C-3627.4,193.8-3627.3,193.9-3627.2,193.9z"/>
</g>
<image style="display:none;overflow:visible;" width="2048" height="2048" xlink:href="../Avisos Parquedero.png"  transform="matrix(1 0 0 1 -2122.6667 0)">
</image>
<rect x="625.2" y="18" transform="matrix(6.123234e-17 -1 1 6.123234e-17 0.3377 2048.0073)" class="st23" width="797.9" height="2011.7"/>
<rect x="651.5" y="49.4" transform="matrix(6.123234e-17 -1 1 6.123234e-17 0.3377 2048.0073)" width="745.3" height="1948.8"/>
<image style="overflow:visible;" width="267" height="155" xlink:href="F79B3F8B.jpg"  transform="matrix(5.8993 0 0 5.8993 -1368.8889 -1033.1952)">
</image>
<text transform="matrix(0.998 0 0 1 109.8158 868.6751)" class="st3 st24 st25">PARQUEADERO</text>
<text transform="matrix(0.998 0 0 1 564.187 1106.2953)" class="st3 st24 st26">ENTRADA</text>
<text transform="matrix(0.998 0 0 1 360.7435 1343.3099)" class="st3 st24 st26">ALTURA MXIMA</text>
<ellipse class="st27" cx="1563.9" cy="1043.6" rx="123.7" ry="124"/>
<rect x="-1497.4" y="18" transform="matrix(6.123234e-17 -1 1 6.123234e-17 -2122.3289 -74.6593)" class="st23" width="797.9" height="2011.7"/>
<rect x="-1471.2" y="49.4" transform="matrix(6.123234e-17 -1 1 6.123234e-17 -2122.3289 -74.6593)" width="745.3" height="1948.8"/>
<text transform="matrix(0.998 0 0 1 -2012.851 868.6751)" class="st3 st24 st25">PARQUEADERO</text>
<text transform="matrix(0.998 0 0 1 -1394.6849 1106.2953)" class="st3 st24 st26">SALIDA</text>
<text transform="matrix(0.998 0 0 1 -1761.9232 1343.3099)" class="st3 st24 st26">ALTURA MXIMA</text>
<ellipse class="st27" cx="-558.8" cy="1043.6" rx="123.7" ry="124"/>
<g>
	<text transform="matrix(0.998 0 0 1 -651.4025 1083.2318)" class="st24 st28">2</text>
</g>
<g>
	<text transform="matrix(0.998 0 0 1 -572.5109 1083.2318)" class="st24 st29">.40</text>
</g>
<g>
	<text transform="matrix(0.998 0 0 1 1471.2643 1083.2318)" class="st24 st28">2</text>
</g>
<g>
	<text transform="matrix(0.998 0 0 1 1550.1559 1083.2318)" class="st24 st29">.40</text>
</g>
<image style="display:none;overflow:visible;" width="907" height="907" xlink:href="../../../../../../../../../AUDIFONOS/Cube.001.png"  transform="matrix(0.9996 0 0 0.9996 -8778.667 -1968)">
</image>
</svg>
