<?xml version="1.0" encoding="utf-8"?>
<!-- Generator: Adobe Illustrator 27.9.1, SVG Export Plug-In . SVG Version: 6.00 Build 0)  -->
<svg version="1.1" id="Layer_1" xmlns="http://www.w3.org/2000/svg" xmlns:xlink="http://www.w3.org/1999/xlink" x="0px" y="0px"
	 viewBox="0 0 1907.7 685.3" style="enable-background:new 0 0 1907.7 685.3;" xml:space="preserve">
<style type="text/css">
	.st0{fill:#FFFFFF;}
</style>
<g>
	<g>
		<path d="M626.5,634.1l11.2,2.8c-2.3,9.2-6.5,16.1-12.6,21c-6.1,4.8-13.5,7.2-22.3,7.2c-9.1,0-16.5-1.8-22.2-5.5
			c-5.7-3.7-10-9.1-13-16.1c-3-7-4.5-14.5-4.5-22.6c0-8.8,1.7-16.4,5-23c3.4-6.5,8.1-11.5,14.3-14.9c6.2-3.4,13-5.1,20.4-5.1
			c8.4,0,15.5,2.1,21.3,6.4c5.7,4.3,9.8,10.3,12,18.1l-11,2.6c-2-6.1-4.8-10.6-8.5-13.4c-3.7-2.8-8.4-4.2-14-4.2
			c-6.5,0-11.9,1.6-16.2,4.7c-4.3,3.1-7.4,7.3-9.2,12.5c-1.8,5.2-2.6,10.6-2.6,16.2c0,7.2,1,13.4,3.1,18.8c2.1,5.3,5.3,9.3,9.7,12
			c4.4,2.6,9.2,4,14.3,4c6.2,0,11.5-1.8,15.9-5.4C622,646.5,625,641.2,626.5,634.1z"/>
		<path d="M651.6,663.6v-84.3h60.9v9.9h-49.8v25.8h46.6v9.9h-46.6v28.7h51.7v9.9H651.6z"/>
		<path d="M730.1,663.6v-84.3h37.4c7.5,0,13.2,0.8,17.1,2.3c3.9,1.5,7,4.2,9.4,8c2.3,3.8,3.5,8.1,3.5,12.7c0,6-1.9,11-5.8,15.1
			c-3.9,4.1-9.8,6.7-17.9,7.8c3,1.4,5.2,2.8,6.7,4.2c3.3,3,6.3,6.7,9.3,11.2l14.7,22.9h-14l-11.2-17.5c-3.3-5.1-5.9-8.9-8-11.6
			c-2.1-2.7-4-4.6-5.7-5.6s-3.4-1.8-5.1-2.2c-1.3-0.3-3.3-0.4-6.2-0.4h-12.9v37.4H730.1z M741.2,616.6h24c5.1,0,9.1-0.5,12-1.6
			c2.9-1.1,5.1-2.7,6.6-5.1c1.5-2.3,2.2-4.8,2.2-7.6c0-4-1.4-7.3-4.3-9.8c-2.9-2.6-7.5-3.9-13.7-3.9h-26.7V616.6z"/>
		<path d="M836.9,663.6l-32.6-84.3h12.1l21.9,61.2c1.8,4.9,3.2,9.5,4.4,13.8c1.3-4.6,2.8-9.2,4.5-13.8l22.8-61.2h11.4l-33,84.3
			H836.9z"/>
		<path d="M891.5,663.6v-84.3h60.9v9.9h-49.8v25.8h46.6v9.9h-46.6v28.7h51.7v9.9H891.5z"/>
		<path d="M1030,634.1l11.2,2.8c-2.3,9.2-6.5,16.1-12.6,21c-6.1,4.8-13.5,7.2-22.3,7.2c-9.1,0-16.5-1.8-22.2-5.5
			c-5.7-3.7-10-9.1-13-16.1c-3-7-4.5-14.5-4.5-22.6c0-8.8,1.7-16.4,5-23c3.4-6.5,8.1-11.5,14.3-14.9c6.2-3.4,13-5.1,20.4-5.1
			c8.4,0,15.5,2.1,21.3,6.4c5.7,4.3,9.8,10.3,12,18.1l-11,2.6c-2-6.1-4.8-10.6-8.5-13.4c-3.7-2.8-8.4-4.2-14-4.2
			c-6.5,0-11.9,1.6-16.2,4.7c-4.3,3.1-7.4,7.3-9.2,12.5c-1.8,5.2-2.6,10.6-2.6,16.2c0,7.2,1,13.4,3.1,18.8c2.1,5.3,5.3,9.3,9.7,12
			c4.4,2.6,9.2,4,14.3,4c6.2,0,11.5-1.8,15.9-5.4C1025.5,646.5,1028.4,641.2,1030,634.1z"/>
		<path d="M1055.1,663.6v-84.3h60.9v9.9h-49.8v25.8h46.6v9.9h-46.6v28.7h51.7v9.9H1055.1z"/>
		<path d="M1133.5,663.6v-84.3h37.4c7.5,0,13.2,0.8,17.1,2.3c3.9,1.5,7,4.2,9.4,8c2.3,3.8,3.5,8.1,3.5,12.7c0,6-1.9,11-5.8,15.1
			c-3.9,4.1-9.8,6.7-17.9,7.8c3,1.4,5.2,2.8,6.7,4.2c3.3,3,6.3,6.7,9.3,11.2l14.7,22.9h-14l-11.2-17.5c-3.3-5.1-5.9-8.9-8-11.6
			c-2.1-2.7-4-4.6-5.7-5.6s-3.4-1.8-5.1-2.2c-1.3-0.3-3.3-0.4-6.2-0.4h-12.9v37.4H1133.5z M1144.7,616.6h24c5.1,0,9.1-0.5,12-1.6
			c2.9-1.1,5.1-2.7,6.6-5.1c1.5-2.3,2.2-4.8,2.2-7.6c0-4-1.4-7.3-4.3-9.8c-2.9-2.6-7.5-3.9-13.7-3.9h-26.7V616.6z"/>
		<path d="M1217.4,574.2l7.6-16.1h13.6l-12.6,16.1H1217.4z M1220.3,663.6v-84.3h11.2v84.3H1220.3z"/>
		<path d="M1241.8,663.6l32.4-84.3h12l34.5,84.3H1308l-9.8-25.5h-35.2l-9.3,25.5H1241.8z M1266.1,629h28.6l-8.8-23.3
			c-2.7-7.1-4.7-12.9-6-17.5c-1.1,5.4-2.6,10.8-4.5,16.1L1266.1,629z"/>
	</g>
	<g>
		<g>
			<path d="M578.2,362.3c0,41.3-17.9,75.5-53.6,102.7c-40.7,31.2-112.2,46.8-214.5,46.8c-7.8,0-19-0.1-33.6-0.3c-14.9,0-26,0-33.1,0
				c-114.7,0-182.9-1.7-204.7-5c-9-1.3-13.5-4.8-13.5-10.4c0-24,1.9-60.4,5.8-109.1C35,338.2,37,301.7,37,277.5
				c0-26-1.9-74.9-5.6-146.8c-0.9-18.4-2.6-46-5.1-82.8l-0.5-4.7c-0.3-4.3,4.6-6.8,14.7-7.7c10.1-0.9,46.1-1.3,107.9-1.3
				c99.1,0,157.1,0.2,173.9,0.7c76.5,2,132.9,11,169.2,26.9c48.2,21.3,72.3,57.3,72.3,108c0,13.2-5.6,27.3-16.8,42.1
				c-8.1,10.5-18.6,21.1-31.7,31.6c-11.5,9.2-17.2,13.5-17.2,12.8c0,1.6,4,4,12.1,7.4c21.8,9,38.8,23.2,51.3,42.7
				C572.6,323.9,578.2,342.5,578.2,362.3z M377.8,172.8c0-19.3-13.4-32.1-40.1-38.4c-14.9-3.4-39.5-5-73.7-5
				c-33.6,0-50.4,1.8-50.4,5.4c0,4.3-0.5,10.7-1.6,19.4c-1.1,8.6-1.6,15.1-1.6,19.4c0,22.4,2.6,35,7.9,37.7c3.4,2,23.1,3,59.2,3
				C344.4,214.2,377.8,200.4,377.8,172.8z M391.8,360.9c0-20.2-11.7-33.9-35-41.1c-14.9-4.5-39.2-6.7-72.7-6.7
				c-40.1,0-61.9,1.1-65.3,3.2c-3.4,2.1-5.1,15.9-5.1,41.2c0,26.5,2,41.1,6.1,43.9c4,2.8,26.4,4.2,67.1,4.2
				c33.6,0,57.2-1.9,70.9-5.7C380.4,393.5,391.8,380.4,391.8,360.9z"/>
			<path d="M1188.5,362.3c0,41.3-17.9,75.5-53.6,102.7c-40.7,31.2-112.2,46.8-214.5,46.8c-7.8,0-19-0.1-33.6-0.3
				c-14.9,0-26,0-33.1,0c-114.7,0-182.9-1.7-204.7-5c-9-1.3-13.5-4.8-13.5-10.4c0-24,1.9-60.4,5.8-109.1
				c3.9-48.7,5.8-85.2,5.8-109.4c0-26-1.9-74.9-5.6-146.8c-0.9-18.4-2.6-46-5.1-82.8l-0.5-4.7c-0.3-4.3,4.6-6.8,14.7-7.7
				c10.1-0.9,46.1-1.3,107.9-1.3c99.1,0,157.1,0.2,173.9,0.7c76.5,2,132.9,11,169.2,26.9C1150,83,1174,119,1174,169.7
				c0,13.2-5.6,27.3-16.8,42.1c-8.1,10.5-18.6,21.1-31.7,31.6c-11.5,9.2-17.2,13.5-17.2,12.8c0,1.6,4,4,12.1,7.4
				c21.8,9,38.8,23.2,51.3,42.7C1182.9,323.9,1188.5,342.5,1188.5,362.3z M988,172.8c0-19.3-13.4-32.1-40.1-38.4
				c-14.9-3.4-39.5-5-73.7-5c-33.6,0-50.4,1.8-50.4,5.4c0,4.3-0.5,10.7-1.6,19.4c-1.1,8.6-1.6,15.1-1.6,19.4c0,22.4,2.6,35,7.9,37.7
				c3.4,2,23.1,3,59.2,3C954.6,214.2,988,200.4,988,172.8z M1002,360.9c0-20.2-11.7-33.9-35-41.1c-14.9-4.5-39.2-6.7-72.7-6.7
				c-40.1,0-61.9,1.1-65.3,3.2c-3.4,2.1-5.1,15.9-5.1,41.2c0,26.5,2,41.1,6.1,43.9c4,2.8,26.4,4.2,67.1,4.2
				c33.6,0,57.2-1.9,70.9-5.7C990.7,393.5,1002,380.4,1002,360.9z"/>
			<path d="M1792.2,431.6c0,3.6-3.3,8.3-9.8,14.1c-57.2,49.1-133.2,73.7-228,73.7c-97,0-175.6-23.9-235.9-71.7
				c-58.7-46.2-88.1-104.6-88.1-175c0-68.2,28.7-126.1,86.2-173.7c60-49.8,136.3-74.7,228.9-74.7c100.7,0,179.6,22.3,236.8,67
				c6.2,4.9,9.3,9.3,9.3,13.1c0,4.3-10.8,20.1-32.4,47.5c-21.6,27.4-35.2,42.7-40.8,46.1c-2.5,1.8-5.6,2.7-9.3,2.7
				c-1.6,0-9.3-4.5-23.3-13.5c-16.8-10.8-33.3-19.2-49.4-25.2c-24.6-9-50-13.5-76.5-13.5c-45.7,0-82.2,12.3-109.6,37
				c-25.2,22.9-37.8,51.2-37.8,84.8c0,34.1,12.6,62.7,37.8,85.8c27.3,25.1,63.9,37.7,109.6,37.7c27,0,52.7-4.3,76.9-12.8
				c15.9-5.6,32-13.5,48.5-23.6c13.7-8.5,21.3-12.8,22.8-12.8c3.1,0,6.2,1.2,9.3,3.7c5,4,18.5,18.1,40.6,42.1
				C1780.9,415.5,1792.2,429.1,1792.2,431.6z"/>
		</g>
		<g>
			<circle class="st0" cx="1857.9" cy="80.1" r="35.9"/>
			<g>
				<g>
					<path d="M1843.7,99.6V59.3h17.9c3.6,0,6.3,0.4,8.2,1.1c1.9,0.7,3.4,2,4.5,3.8c1.1,1.8,1.7,3.9,1.7,6.1c0,2.9-0.9,5.3-2.8,7.2
						c-1.9,2-4.7,3.2-8.6,3.7c1.4,0.7,2.5,1.3,3.2,2c1.6,1.4,3,3.2,4.4,5.4l7,11h-6.7l-5.3-8.4c-1.6-2.4-2.8-4.3-3.9-5.6
						c-1-1.3-1.9-2.2-2.7-2.7c-0.8-0.5-1.6-0.9-2.4-1.1c-0.6-0.1-1.6-0.2-3-0.2h-6.2v17.9H1843.7z M1849.1,77.1h11.5
						c2.4,0,4.3-0.3,5.7-0.8c1.4-0.5,2.4-1.3,3.1-2.4c0.7-1.1,1.1-2.3,1.1-3.6c0-1.9-0.7-3.5-2.1-4.7c-1.4-1.2-3.6-1.8-6.6-1.8
						h-12.8V77.1z"/>
				</g>
			</g>
		</g>
	</g>
</g>
</svg>
