<?xml version="1.0" encoding="utf-8"?>
<!-- Generator: Adobe Illustrator 27.9.1, SVG Export Plug-In . SVG Version: 6.00 Build 0)  -->
<svg version="1.1" id="Layer_1" xmlns="http://www.w3.org/2000/svg" xmlns:xlink="http://www.w3.org/1999/xlink" x="0px" y="0px"
	 viewBox="0 0 1024 494.2" style="enable-background:new 0 0 1024 494.2;" xml:space="preserve">
<style type="text/css">
	.st0{fill:#E20A33;}
</style>
<image style="display:none;overflow:visible;" width="1024" height="1024" xlink:href="../Figura 1.png"  transform="matrix(1 0 0 1 2.627426e-03 -136.8899)">
</image>
<g>
	<path class="st0" d="M21.2,190.8c15.6,0,31.3,0.1,46.9,0c1.9,0,2.7,0.6,3.3,2.3c24.3,62.4,48.7,124.9,73.1,187.3
		c4,10.2,8,20.4,12,30.8c1.1-1.3,1.4-2.9,2-4.2c27.3-71.3,54.6-142.6,81.8-213.9c0.6-1.7,1.4-2.2,3.2-2.2c14.8,0.1,29.7,0.1,44.5,0
		c2,0,2.5,0.5,2.5,2.5c0,95.1,0,190.2,0,285.3c0,0.6-0.1,1.2-0.1,1.8c-0.6,0.4-1.3,0.2-1.9,0.2c-13.5,0-27,0-40.4,0
		c-1-0.2-1.3-0.9-1.4-1.8c-0.1-1-0.1-1.9-0.1-2.9c0-62.3,0-124.5,0-186.8c0-1.5,0-3,0.3-4.5c-1.1,4.7-3,9.1-4.6,13.6
		c-7.2,20.1-14.5,40.1-21.8,60.2c-8.9,24.5-17.8,49.1-26.7,73.6c-5.5,15.2-10.9,30.4-16.6,45.6c-1.1,3-1.2,3-4.3,3
		c-10.7,0-21.4,0-32,0c-3.1,0-3.5-0.2-4.5-3.1c-5.6-15-11.1-30-16.7-45c-7.3-19.7-14.5-39.3-21.8-59c-8.4-22.9-16.9-45.7-25.4-68.6
		c-2.2-5.9-4.4-11.8-6.5-17.7c-0.4-1.1-0.7-2.2-0.8-3c-0.1-0.7,0.3-0.4,0-0.5c0,0,0,0,0,0.1c0.3,1.5,0.4,3,0.4,4.6
		c0,62.6,0,125.3,0,187.9c0,1.5,0.7,3.4-1.3,4.3c-13.7,0-27.5,0-41.2,0c-0.6,0-1.2,0.1-1.7-0.2C21.2,383.8,21.2,287.3,21.2,190.8z"
		/>
	<path class="st0" d="M1006.2,191.2c-4.2,6.9-8.5,13.9-12.7,20.9c-26.7,44.7-53.4,89.4-80.1,134c-3.2,5.3-6.3,10.7-9.6,16
		c-0.9,1.4-1.2,2.8-1.2,4.4c0,37.1,0,74.1,0.1,111.2c0,2.2-0.5,2.8-2.8,2.8c-12.5-0.1-24.9-0.1-37.4,0c-2.4,0-2.7-0.7-2.7-2.8
		c0.1-36.8,0-73.7,0.1-110.5c0-2.2-0.5-4-1.6-5.8c-33.9-56-67.7-112.1-101.5-168.1c-0.4-0.6-1.2-1.3-0.9-1.9
		c0.4-0.9,1.5-0.4,2.2-0.4c14.1,0,28.2,0,42.3-0.1c1.5,0,2.3,0.5,3.1,1.8C829,235.8,854.5,279,880,322.1c0.4,0.6,0.8,1.2,1.4,2.2
		c2.6-4.3,5-8.4,7.5-12.4c23.8-39.8,47.5-79.6,71.3-119.4c0.8-1.3,1.6-1.6,3-1.6c13.6,0,27.1,0,40.7,0c0.8,0,1.6,0,2.4-0.1
		C1006.2,190.9,1006.2,191.1,1006.2,191.2z"/>
	<path class="st0" d="M630.7,11.1c7.7,3.1,11,8.8,10.4,17.8c-0.9,14.8-7.2,27.3-15.9,38.8c-5.5,7.2-11.9,13.4-20.1,17.5
		c-1.8,0.9-3.7,1.6-5.6,2.1c-9.6,2.6-16.7-2.3-17.7-12.2c-0.9-8.3,1-16.1,4.1-23.6c5.3-12.8,13-23.9,23.9-32.6
		c4.5-3.7,9.7-6.2,15.2-7.8C626.9,11.1,628.8,11.1,630.7,11.1z"/>
	<path class="st0" d="M608,480.2c-0.5,0-1,0.1-1.6,0.1c-49.1,0-98.3,0-147.4,0c0-13.3,0-26.5-0.1-39.8c0-1.2,0.5-1.5,1.6-1.5
		c3.3,0,6.7,0,10.3,0c-0.8-1-1.8-1.1-2.7-1.5c-23.5-9.8-43.7-24-59.4-44.2c-12.9-16.7-20.7-35.8-25.4-56.2
		c-4.7-20.2-6.5-40.8-6.6-61.5c-0.2-25.8-0.1-51.6-0.2-77.4c0-2.1,0.5-2.7,2.7-2.7c13.8,0.1,27.6,0.1,41.4,0c1.9,0,2.3,0.6,2.3,2.4
		c-0.1,30.5,0,61.1,0,91.6c0,24.1,7.2,45.7,22.3,64.6c16.9,21.2,38.9,33,61.9,37.5c39.6,7.8,74.9-1.7,104.8-29
		c17.6-16.1,27.9-36.5,30.6-60.5c0.6-5.1,0.8-10.2,0.8-15.3c0-29.5,0-59,0-88.5c0-3.1-0.4-2.8,2.9-2.8c13.9,0,27.7,0,41.6,0
		c1.9,0,2.7,0.3,2.7,2.5c-0.1,33.6,0.1,67.2-0.1,100.7c-0.2,29.7-6.9,57.7-23,83c-16.1,25.3-38.4,43.4-65.8,55.4
		c-0.9,0.4-1.9,0.8-2.9,1.2c-0.1,0.1-0.2,0.2-0.7,0.6c2.8,0,5.2,0.1,7.5,0c2-0.1,2.7,0.4,2.6,2.5C607.9,454.4,608,467.3,608,480.2z"
		/>
	<path class="st0" d="M513.9,77.1c0.2-10,2.2-22,8.5-33c1.9-3.3,4.3-6.3,7.4-8.5c5.6-4,11.6-3.5,16.5,1.3c4.8,4.6,7.4,10.5,8.9,16.9
		c4.4,18.2,3.2,36-5,53c-1.8,3.8-4.2,7.1-7.5,9.8c-6.2,5-13,4.4-18.4-1.4c-5-5.5-7.3-12.3-8.9-19.3C514.3,90.4,513.9,85,513.9,77.1z
		"/>
	<path class="st0" d="M483.1,178.1c-0.2,6.4-0.7,11.9-3.2,17c-3.8,7.8-10.7,10.1-18.5,6.3c-5.1-2.5-9.1-6.4-12.4-10.8
		c-10.5-14.1-15.9-30-16.1-47.5c-0.1-5.1,0.8-10.2,2.9-14.9c3.7-7.9,10.7-10.5,18.6-6.6c5,2.4,9,6.2,12.3,10.6
		C477.2,146,482.3,161.7,483.1,178.1z"/>
	<path class="st0" d="M480.4,99.8c-9.2-0.3-16.1-3-22.7-6.8C444,85,433,74.3,425.9,59.8c-1.9-3.9-3.3-8.1-3.4-12.6
		c-0.2-9.1,4.8-14.3,14-14.3c6.4,0,12.4,2,18.1,4.9c14.5,7.5,26.1,18.2,34.1,32.5c2.5,4.5,4.4,9.4,4.6,14.7
		C493.7,94.5,488.4,99.9,480.4,99.8z"/>
	<path class="st0" d="M630.7,97.2c7.5-0.2,12.7,4.4,13.4,11.9c0.8,7.7-1.5,14.7-4.9,21.3c-7.7,15-18.7,27-33.8,34.8
		c-5.1,2.6-10.5,4.4-16.5,3.4c-5-0.8-8.3-3.7-9.7-8.6c-1.5-4.9-1-9.8,0.5-14.4c7-21.2,20.5-36.7,40.9-46.1
		C623.7,97.9,627.1,97.2,630.7,97.2z"/>
	<path class="st0" d="M560.6,221c-0.1,5.2-0.6,10.6-2.8,15.6c-3.9,8.7-11.1,11.2-19.5,6.8c-6.5-3.5-11.2-9-15-15.2
		c-8.4-13.4-12.9-28.1-12.6-44c0.1-5.6,1.1-11.1,4.1-16c3.6-5.9,9.3-7.7,15.7-5.3c4.7,1.8,8.5,4.9,11.7,8.6
		c10.1,11.7,15.5,25.4,17.8,40.5c0.2,1.2,0.3,2.3,0.4,3.5C560.5,217.4,560.5,219.1,560.6,221z"/>
</g>
</svg>
