<?xml version="1.0" encoding="utf-8"?>
<!-- Generator: Adobe Illustrator 27.9.1, SVG Export Plug-In . SVG Version: 6.00 Build 0)  -->
<svg version="1.1" id="Layer_1" xmlns="http://www.w3.org/2000/svg" xmlns:xlink="http://www.w3.org/1999/xlink" x="0px" y="0px"
	 viewBox="0 0 1412.8 163.3" style="enable-background:new 0 0 1412.8 163.3;" xml:space="preserve">
<style type="text/css">
	.st0{fill:#D3045E;}
	.st1{fill:#525556;}
</style>
<g>
	<path d="M25.6,112.6l14.9-1.3c0.7,6,2.3,10.9,4.9,14.7c2.6,3.8,6.6,6.9,12,9.3c5.4,2.4,11.5,3.5,18.3,3.5c6,0,11.3-0.9,15.9-2.7
		c4.6-1.8,8-4.2,10.3-7.4c2.2-3.1,3.4-6.5,3.4-10.2c0-3.7-1.1-7-3.3-9.8c-2.2-2.8-5.7-5.1-10.7-7c-3.2-1.2-10.3-3.2-21.2-5.8
		c-10.9-2.6-18.6-5.1-23-7.4c-5.7-3-9.9-6.7-12.7-11.1c-2.8-4.4-4.2-9.4-4.2-14.8c0-6,1.7-11.6,5.1-16.9c3.4-5.2,8.4-9.2,15-11.9
		c6.6-2.7,13.8-4.1,21.9-4.1c8.8,0,16.6,1.4,23.4,4.3c6.7,2.8,11.9,7,15.6,12.6c3.6,5.5,5.6,11.8,5.9,18.8l-15.1,1.1
		c-0.8-7.5-3.6-13.2-8.3-17.1c-4.7-3.8-11.6-5.8-20.8-5.8c-9.5,0-16.5,1.7-20.9,5.2c-4.4,3.5-6.5,7.7-6.5,12.6
		c0,4.3,1.5,7.8,4.6,10.6c3,2.8,11,5.6,23.8,8.5c12.8,2.9,21.6,5.4,26.4,7.6c6.9,3.2,12.1,7.2,15.4,12.2c3.3,4.9,5,10.6,5,17
		c0,6.3-1.8,12.3-5.4,17.9c-3.6,5.6-8.8,10-15.7,13.1c-6.8,3.1-14.5,4.7-23,4.7c-10.8,0-19.8-1.6-27.1-4.7
		c-7.3-3.1-13-7.9-17.2-14.2C28,127.7,25.8,120.6,25.6,112.6z"/>
	<path d="M128.9,150.9l45.8-119.2h17l48.8,119.2h-18l-13.9-36.1h-49.8l-13.1,36.1H128.9z M163.3,102h40.4l-12.4-33
		c-3.8-10-6.6-18.3-8.5-24.7c-1.5,7.6-3.7,15.2-6.4,22.8L163.3,102z"/>
	<path d="M252.4,150.9V31.7h15.8v105.1h58.7v14.1H252.4z"/>
	<path d="M332.6,150.9l45.8-119.2h17l48.8,119.2h-18l-13.9-36.1h-49.8l-13.1,36.1H332.6z M367,102h40.4L395,69
		c-3.8-10-6.6-18.3-8.5-24.7c-1.5,7.6-3.7,15.2-6.4,22.8L367,102z"/>
	<path d="M493.8,150.9V31.7h41.1c9.3,0,16.3,0.6,21.2,1.7c6.8,1.6,12.7,4.4,17.5,8.5c6.3,5.3,11,12.1,14.1,20.4
		c3.1,8.3,4.7,17.7,4.7,28.3c0,9.1-1.1,17.1-3.2,24.1c-2.1,7-4.8,12.8-8.1,17.4c-3.3,4.6-6.9,8.2-10.9,10.8c-3.9,2.6-8.7,4.6-14.2,6
		c-5.6,1.4-11.9,2-19.1,2H493.8z M509.6,136.9h25.4c7.9,0,14-0.7,18.5-2.2s8-3.5,10.7-6.2c3.7-3.7,6.7-8.8,8.7-15.1
		c2.1-6.3,3.1-14,3.1-23c0-12.5-2-22-6.1-28.7c-4.1-6.7-9.1-11.2-14.9-13.5c-4.2-1.6-11-2.4-20.4-2.4h-25V136.9z"/>
	<path d="M614.4,150.9V31.7h86.2v14.1h-70.4v36.5h65.9v14h-65.9v40.6h73.2v14.1H614.4z"/>
	<path d="M805.5,150.9L759.3,31.7h17.1l31,86.6c2.5,6.9,4.6,13.4,6.3,19.5c1.8-6.5,4-13,6.4-19.5l32.2-86.6h16.1l-46.7,119.2H805.5z
		"/>
	<path d="M882.8,150.9V31.7H969v14.1h-70.4v36.5h65.9v14h-65.9v40.6h73.2v14.1H882.8z"/>
	<path d="M993.4,150.9V31.7h16.2l62.6,93.6V31.7h15.1v119.2h-16.2l-62.6-93.7v93.7H993.4z"/>
	<path d="M1144.1,150.9V45.8h-39.3V31.7h94.5v14.1h-39.4v105.1H1144.1z"/>
	<path d="M1190.1,150.9l45.8-119.2h17l48.8,119.2h-18l-13.9-36.1h-49.8l-13.1,36.1H1190.1z M1224.5,102h40.4l-12.4-33
		c-3.8-10-6.6-18.3-8.5-24.7c-1.5,7.6-3.7,15.2-6.4,22.8L1224.5,102z"/>
	<path d="M1308.8,112.6l14.9-1.3c0.7,6,2.3,10.9,4.9,14.7c2.6,3.8,6.6,6.9,12,9.3c5.4,2.4,11.5,3.5,18.3,3.5c6,0,11.3-0.9,15.9-2.7
		c4.6-1.8,8-4.2,10.3-7.4c2.2-3.1,3.4-6.5,3.4-10.2c0-3.7-1.1-7-3.3-9.8c-2.2-2.8-5.7-5.1-10.7-7c-3.2-1.2-10.3-3.2-21.2-5.8
		c-10.9-2.6-18.6-5.1-23-7.4c-5.7-3-9.9-6.7-12.7-11.1c-2.8-4.4-4.2-9.4-4.2-14.8c0-6,1.7-11.6,5.1-16.9c3.4-5.2,8.4-9.2,15-11.9
		c6.6-2.7,13.8-4.1,21.9-4.1c8.8,0,16.6,1.4,23.4,4.3s11.9,7,15.6,12.6c3.6,5.5,5.6,11.8,5.9,18.8l-15.1,1.1
		c-0.8-7.5-3.6-13.2-8.3-17.1c-4.7-3.8-11.6-5.8-20.8-5.8c-9.5,0-16.5,1.7-20.9,5.2c-4.4,3.5-6.5,7.7-6.5,12.6
		c0,4.3,1.5,7.8,4.6,10.6c3,2.8,11,5.6,23.8,8.5c12.8,2.9,21.6,5.4,26.4,7.6c6.9,3.2,12.1,7.2,15.4,12.2c3.3,4.9,5,10.6,5,17
		c0,6.3-1.8,12.3-5.4,17.9c-3.6,5.6-8.8,10-15.7,13.1c-6.8,3.1-14.5,4.7-23,4.7c-10.8,0-19.8-1.6-27.1-4.7
		c-7.3-3.1-13-7.9-17.2-14.2C1311.2,127.7,1309.1,120.6,1308.8,112.6z"/>
</g>
<g>
	<path class="st0" d="M-322.8-1.9h10.4c11,0.8,17.8,1.4,20.6,1.7c23.4,3,45.7,9.8,66.7,20.3c0.4,0.2,0.5,0.7,0.3,1c0,0,0,0,0,0
		l-15.8,29.1c-0.1,0.2-0.3,0.2-0.4,0.1c-35.9-17.4-73.5-22.2-112.5-14.6c-14.8,2.9-29,7.8-42.6,14.6c-0.3,0.2-0.7,0-0.8-0.3
		L-412.8,21c-0.2-0.3-0.1-0.6,0.2-0.8C-389.4,8.8-365,1.9-339.1-0.5C-333.7-1-328.2-1.5-322.8-1.9z"/>
	<path class="st1" d="M-323.2,80.2c10-4.5,22.8-2.5,27.4,8.2c3.9,9,3.6,17.8-0.9,26.6c-6.6,12.9-25.3,10.7-37.7,7.8
		c-0.5-0.1-0.9-0.6-0.9-1.1l0-62.9c0-0.2,0.2-0.4,0.4-0.5l10.7-1.8c0.1,0,0.3,0.1,0.3,0.2c0,0,0,0,0,0l0,22.9
		C-323.9,80.2-323.7,80.4-323.2,80.2z M-306.9,109.5c3-6.2,3.6-17.3-3.3-21.2c-3.9-2.2-9.4-1.3-13.2,0.7c-0.4,0.2-0.7,0.7-0.7,1.2
		v24.3c0,0.5,0.2,0.8,0.7,0.8C-316.7,115.9-310.4,116.6-306.9,109.5z"/>
	<path class="st1" d="M-430.9,125.5c-8.3-0.4-16.4-2.7-16.5-12.8c-0.2-18-0.2-35.8,0-53.5c0-0.2,0.1-0.3,0.3-0.3l10.6-1.8
		c0.2,0,0.4,0.1,0.4,0.3c0,0,0,0,0,0.1c0,15.4,0,32.4,0,51c0,4.4,2.3,7,6.8,7.8c0.2,0,0.2,0.1,0.2,0.3c-0.3,2.9-0.8,5.9-1.4,8.9
		C-430.6,125.5-430.7,125.5-430.9,125.5z"/>
	<path class="st1" d="M-468.8,93.9c-0.1-1.8-0.1-3.7-0.1-5.6c0.3-8.6-3.3-15.8-12.2-17c-11.9-1.5-17.5,6.1-17.5,17.1
		c0.1,11.4,0.1,22.9,0,34.4c0,0.4-0.2,0.6-0.6,0.6h-10.2c-0.5,0-0.7-0.2-0.7-0.7c-0.1-10.3-0.2-20.5-0.1-30.6
		c0.1-7.5,0.8-12.9,2.1-16.1c4.5-10.6,13.8-14,25.3-13.8c10.8,0.1,19.6,4.6,23.7,14.9c1.6,3.9,2.3,10.2,2.1,18.6
		c-0.2,9.7-0.2,18.9,0,27.5c0,0.5-0.2,0.7-0.7,0.7h-10.2c-0.4,0-0.8-0.3-0.8-0.8v0v-17.7c0-0.3-0.2-0.6-0.5-0.7
		c-6.6-1.8-13.1-2.3-19.4-1.7c-0.3,0-0.5-0.1-0.5-0.4v-9c0-0.3,0.2-0.5,0.5-0.5c6.3-0.4,12.6,0.2,18.9,1.6
		C-469,94.8-468.8,94.5-468.8,93.9z"/>
	<path class="st1" d="M-201,89.6c0.8,2.3,1.2,4.9,1.2,7.3c0,8.9,0.1,17.7,0,26.4c0,0.4-0.2,0.6-0.6,0.6l-10.4,0
		c-0.3,0-0.5-0.2-0.5-0.5c0.2-9.2,0.1-17.9-0.1-26.2c-0.1-4.3-1.8-9.8-6.8-10c-2.3-0.1-4.8,0-7.5,0.3c-0.4,0.1-0.7,0.3-0.7,0.7
		l0,34.7c0,0.4-0.2,0.6-0.6,0.6l-10.2,0c-0.4,0-0.6-0.2-0.6-0.6l0-42.5c0-0.4,0.2-0.6,0.5-0.6c9.7-2.1,23.5-4.6,31.5,2.1
		c0.3,0.3,0.7,0.3,1,0.1c6.1-4,12.8-5.1,20-3.4c9.5,2.3,11.4,10.7,11.3,19.2c0,9,0,17.4,0,25.3c0,0.5-0.2,0.7-0.7,0.7l-10.2,0
		c-0.4,0-0.6-0.2-0.6-0.6c0-7.8,0-15.7,0-23.6c0-4.1-0.6-7.2-1.9-9.3c-3.1-5.1-9.2-3.9-13.9-1.6C-201,88.8-201.1,89.1-201,89.6z"/>
	<path class="st1" d="M-358.8,97.1c2.3,0.6,3.1-0.2,2.5-2.5c-0.2-0.5-0.3-1.1-0.4-1.7c-0.5-3-2.3-4.9-5.2-5.7
		c-4.3-1.2-10.7-1-15.6,0.5c-0.8,0.3-1.3,0-1.4-0.9l-1.2-6.4c-0.1-0.7,0.2-1.2,0.9-1.3c9.8-2,25.1-3.8,31.1,5.7
		c1.8,2.8,2.6,6.2,2.4,10.1c-0.1,2.1-0.2,4.1-0.2,6.1c0,7,0,14.1,0,21.2c0,0.2-0.1,0.3-0.3,0.3c-9.5,2.3-35.8,6.2-38.4-8.9
		c-1.5-8.7,2-14.2,10.4-16.4C-368.8,95.9-363.7,95.8-358.8,97.1z M-356.5,115.2l0.1-9.9c0-0.9-0.7-1.6-1.5-1.6c0,0,0,0,0,0l-7.8-0.1
		c-4.1,0-7.5,2.6-7.5,6c0,0,0,0,0,0v0.9c0,3.3,3.3,6.1,7.4,6.1l7.8,0.1C-357.2,116.7-356.5,116-356.5,115.2z"/>
	<path class="st1" d="M-259.7,96.8c0.5-6.7-2.8-10.1-9.8-10.3c-4.6-0.1-8.7,0.3-12.3,1.3c-0.2,0.1-0.4,0-0.4-0.3l-1.4-7.9
		c0-0.2,0.1-0.4,0.3-0.4c10.6-2.2,27.8-4.3,32.7,7.1c1.2,2.8,1.7,6.9,1.6,12.2c-0.3,8-0.3,15.7-0.1,23.2c0,0.5-0.2,0.8-0.7,0.9
		c-9.1,2-17.5,2.6-25,1.5c-8.5-1.2-12.9-5.5-13.4-12.9c-1-15.4,17.5-16.5,27.8-13.8C-260,97.6-259.7,97.4-259.7,96.8z M-259.6,115.4
		l0.1-10.3c0-0.7-0.6-1.4-1.3-1.4c0,0,0,0,0,0l-8.2-0.1c-4,0-7.3,2.6-7.3,5.9c0,0,0,0,0,0v1c0,3.3,3.2,6,7.2,6c0,0,0,0,0,0l8.2,0.1
		C-260.2,116.7-259.6,116.1-259.6,115.4C-259.6,115.4-259.6,115.4-259.6,115.4z"/>
	<path class="st1" d="M-137.9,96.9c0-1.6-0.1-3.1-0.4-4.5c-1.6-8.3-16.4-6-21.8-4.5c-0.1,0-0.3,0-0.3-0.2c0,0,0,0,0,0l-1.4-8
		c0-0.2,0.1-0.4,0.3-0.4c11.2-2.4,29.1-4.5,33.3,8.6c1.6,4.8,0.7,9.1,0.7,13.8c0.1,6.5,0.1,13.2,0.2,20.1c0,0.4-0.2,0.7-0.7,0.8
		c-10,2.2-34.5,5.7-37.9-7.9c-4.5-17.9,15.5-20.6,27.3-17.3c0.3,0.1,0.6-0.1,0.7-0.4C-137.9,97-137.9,97-137.9,96.9z M-137.8,115.2
		l0.1-10c0-0.8-0.6-1.5-1.5-1.5c0,0,0,0,0,0l-8-0.1c-4.1-0.1-7.5,2.6-7.5,5.9l0,0.9c0,3.3,3.2,6.1,7.4,6.2l8,0.1
		C-138.5,116.7-137.8,116.1-137.8,115.2C-137.8,115.2-137.8,115.2-137.8,115.2z"/>
	<path class="st1" d="M-424.2,108.9c-2.8-12.8,1.1-24.7,13.9-29.4c6.1-2.2,12.8-2.1,20,0.4c0.4,0.1,0.6,0.4,0.5,0.8l-2,7.3
		c-0.1,0.4-0.6,0.7-1,0.6c0,0,0,0-0.1,0c-3.5-1.3-7-1.6-10.5-1c-10.7,1.8-12.2,14.6-8.2,22.8c3.6,7.2,15,5.6,21.2,4.3
		c0.2,0,0.3,0.1,0.4,0.2c0,0,0,0,0,0l1.4,8.1c0,0.2,0,0.3-0.2,0.3C-402.6,128-420.7,125.1-424.2,108.9z"/>
	<path class="st1" d="M-293.6,133c0.5-0.5,1.1-1,1.6-1.6c0.3-0.3,0.6-0.4,0.9-0.2c0.5,0.2,0.6,0.5,0.4,0.9c-0.5,1.1-1.4,2-2.5,2.6
		c-0.5,0.2-0.8,0.2-1.2-0.2l-0.9-1c-0.4-0.4-1-0.5-1.4-0.1c0,0-0.1,0.1-0.1,0.1l-1.8,2.1c-0.5,0.5-0.9,0.6-1.4,0l-0.9-1
		c-0.4-0.5-0.5-1,0-1.6c0.6-0.8,1.4-1.4,2.3-1.9c0.9-0.5,2-0.3,2.7,0.4l1.2,1.3C-294.3,133.3-293.9,133.4-293.6,133z"/>
	<path class="st0" d="M-330,144.4c-1.9,2.2-3.2,4-4,5.5c-1.4,2.4-1.3,7.3,2.9,6.6c-3,7.3-10.8,10.6-17.7,6.8
		c-12.4-6.9-8.5-36.3,9.4-31.4C-333.7,133.4-330.8,138.7-330,144.4z M-343,159.8c3.9,0,7.1-5.2,7.1-11.7c0-6.5-3.2-11.7-7.1-11.7
		c0,0,0,0,0,0c-3.9,0-7.1,5.2-7.1,11.7S-346.9,159.8-343,159.8C-343,159.8-343,159.8-343,159.8z"/>
	<path class="st0" d="M-369.2,157.2l-14.8,0c-0.4,0-0.6-0.2-0.7-0.5c-0.5-1.9-0.2-3.6,1-5.2c4.7-6.3,9.4-12.6,14.1-18.9
		c0.3-0.4,0.6-0.5,1.1-0.5l5.1,0c0.4,0,0.7,0.2,0.7,0.7l0,18.8c0,0.8,0.4,1.2,1.2,1.2l2.7,0c0.4,0,0.6,0.2,0.6,0.6l0,3.4
		c0,0.4-0.2,0.7-0.7,0.6l-3.2-0.1c-0.4,0-0.6,0.2-0.6,0.6l0,6.1c0,0.1-0.1,0.2-0.2,0.2l-5.4,0c-0.2,0-0.3-0.1-0.3-0.3l0-6
		C-368.5,157.4-368.7,157.2-369.2,157.2z M-378.5,152.2c-0.1,0.2-0.1,0.4,0.1,0.5c0.1,0,0.1,0.1,0.2,0.1l9.6,0
		c0.2,0,0.3-0.2,0.3-0.3l0,0l0.1-13c0-0.2-0.1-0.4-0.3-0.4c-0.1,0-0.2,0.1-0.3,0.1L-378.5,152.2z"/>
	<path class="st1" d="M-266.3,165.2h-5.1c-4.3-2.9-3.9-8.5,1-10.2c2.5-0.9,5.2-1.7,8.1-2.6c2.1-0.6,2-1.1-0.1-1.5
		c-2.4-0.5-5.8-1.4-6.4-4c-0.1-0.3-0.2-0.4-0.5-0.3l-5.9,1.3c-0.4,0.1-0.7,0.3-0.9,0.7c-1.6,4-5.5,8.6-10,7.7
		c-2.7-0.5-4.1-2.1-4.1-4.7c0-0.6-0.2-0.7-0.6-0.2c-2.1,2.3-4.2,5.2-7.9,3.8c-4-1.6-0.3-9.6,1-12.1c0.9-1.7,0.6-2-0.9-0.7
		c-4.3,3.7-8.1,8.3-11.4,13.7c-0.8,1.2-1.8,1.6-3,1c-0.8-0.4-1.2-1.2-0.9-2l0.7-2.5c0.4-1.3,0.1-1.4-0.7-0.4
		c-0.7,0.9-1.6,1.7-2.6,2.6c-2.4,2-6,1.1-6-2.5c0-0.6-0.2-0.7-0.7-0.4c-2.6,1.8-4.6,4.4-8.1,4.8c-4.2,0.7-4.2-4.2-2.9-6.6
		c0.8-1.5,2.2-3.3,4-5.5c2.8-3.2,10.8-10.3,14-4.3c0.2,0.3,0.2,0.6,0.1,0.9c-0.5,1.4-1.2,2.5-2.2,3.4c-1,0.8-1.2,0.6-0.8-0.6
		c0.2-0.5,0.5-1.1,0.7-1.6c1-2,0.6-2.4-1.3-1.2c-2.8,1.7-10.8,8.4-11,12.5c0,0.5,0.2,0.6,0.6,0.4c3.5-1.9,6.6-4.2,9.2-7
		c0.1-0.1,0.3-0.2,0.6-0.2c0.6,0,1,0.3,1.2,0.9c0.2,0.4,0.2,0.7,0,1.1l-1.7,4.1c-0.2,0.5,0,1,0.5,1.2c0.1,0,0.1,0,0.2,0.1
		c0.9,0.1,1.7-0.1,2.3-0.7c2.9-2.5,5.9-5.2,7.7-8.7c1.2-2.3,2.6-4.4,4.3-6.5c0.5-0.6,1-0.7,1.6-0.2l1,0.7c0.7,0.5,0.8,1.1,0.3,1.8
		c-1.6,2.6-3.2,5.3-4.7,8c-0.1,0.1,0,0.2,0.1,0.2h0c0.2,0.1,0.3,0.1,0.4-0.1c2.8-4.3,6.1-8.2,10.3-11.2c1-0.7,2.4-0.5,3.2,0.5
		c0.1,0.1,0.2,0.3,0.2,0.4c0.5,1,0.5,2.1,0,3.2c-1.5,3.6-2.7,7-3.7,10.3c-0.6,2.2,0,2.6,1.8,1.3c2.8-1.9,6.9-5.7,7.7-9.3
		c0.8-3.6,3.2-6,7.1-7.5c1.6-0.6,3-0.4,4.2,0.6c2.8,2.3,2.2,5.7,1.2,8.7c-0.1,0.2,0,0.5,0.3,0.5c0.1,0,0.1,0,0.2,0
		c1.8-0.1,4.8-0.4,5.8-2.1c1.8-3.1,9.1-10.5,13.5-7.5c1.1,0.8,1.4,2.3,0.7,3.4c0,0.1-0.1,0.1-0.1,0.2c-2.3,2.9-5.2,4.4-8.6,4.5
		c-0.8,0-1.3,0.4-1.7,1l-0.6,1c-0.4,0.7-0.2,1.1,0.6,1.2c2.2,0.2,4.1,0.8,5.8,1.9c0.3,0.2,0.7,0.2,1,0c3.1-1.9,6.2-4,9.1-6.3
		c0.1-0.1,0.3-0.1,0.5,0l0.2,0.3c0.2,0.2,0.1,0.4,0,0.6c-2.6,2.3-5.4,4.3-8.5,6.1c-0.4,0.2-0.5,0.5-0.3,0.9
		C-254.8,157.4-261.6,163.2-266.3,165.2z M-282.1,144.7l-0.9,1.3c-0.4,0.7-0.3,1,0.5,1l4.3,0c0.4,0,0.8-0.2,1-0.6
		c1.3-2.3,1.9-4.5,1.8-6.7c0-1.2-1.1-2.2-2.3-2.1c-0.2,0-0.5,0.1-0.7,0.1c-2.3,0.9-4.3,2.3-6,4.1c-0.1,0.2-0.1,0.4,0,0.5
		c0,0,0,0,0.1,0l1.8,0.9C-281.8,143.7-281.7,144.1-282.1,144.7z M-256,138.8c-0.3-0.4-1.9,0.4-3.7,1.7c-1.8,1.3-3.1,2.6-2.8,3
		c0,0,0,0,0,0c0.3,0.4,1.9-0.4,3.7-1.7C-257.1,140.5-255.8,139.1-256,138.8C-256,138.8-256,138.8-256,138.8z M-278.5,149.2
		c0.3-0.3,0.2-0.8-0.1-1c-0.1-0.1-0.3-0.2-0.5-0.2l-4.8-0.1c-0.3,0-0.6,0.2-0.7,0.5l-1.9,5.4c-0.1,0.4,0.1,0.8,0.5,0.9
		c0.1,0,0.3,0.1,0.4,0l2.7-0.8c0.1,0,0.2-0.1,0.3-0.2L-278.5,149.2z M-272.8,160.1c-0.1,0.6,0,1.2,0.1,1.9c0.4,1.6,1.4,2,2.8,1.2
		c4.2-2.2,7.5-5.5,9.8-9.8c0.2-0.4,0.1-0.6-0.3-0.4l-9.2,3.1C-271.5,156.9-272.5,158.2-272.8,160.1z"/>
</g>
</svg>
