<?xml version="1.0" encoding="utf-8"?>
<!-- Generator: Adobe Illustrator 27.9.1, SVG Export Plug-In . SVG Version: 6.00 Build 0)  -->
<svg version="1.1" id="Layer_1" xmlns="http://www.w3.org/2000/svg" xmlns:xlink="http://www.w3.org/1999/xlink" x="0px" y="0px"
	 viewBox="0 0 1958.3 707.3" style="enable-background:new 0 0 1958.3 707.3;" xml:space="preserve">
<style type="text/css">
	.st0{fill:#848484;}
	.st1{fill:#1B5B00;}
	.st2{fill:#E2E2E2;}
	.st3{fill:#C7DAFF;}
	.st4{fill:#85BC6C;}
	.st5{fill:#F4B1A2;}
	.st6{fill:#FFFFFF;}
</style>
<polygon class="st0" points="22,137.9 368.3,280 368.3,554.6 565.9,554.6 615.3,505.3 615.3,371 793,416.3 964.7,416.3 967,408.9 
	1000.2,408.9 1001,415.4 1027.2,415.4 1108.7,369.7 1559.7,369.7 1804,546.4 1856.5,484 1606.7,297.4 1440.6,102.3 1030.6,270.1 
	1026.9,285.7 923.1,281 920.7,319.4 806.8,359.2 615.8,305.1 615.8,215.6 411.1,215.6 22,60.3 "/>
<polygon class="st1" points="24.8,59 161.5,22.5 1864.3,22.5 1915.2,431.9 1856.5,484 1610.3,301.6 1440.6,102.3 1030.6,270.1 
	1026.9,285.7 923.1,281 920.7,319.4 806.8,359.2 615.8,305.1 615.8,215.6 411.1,216.5 "/>
<polygon class="st1" points="15.1,691 22,137.9 368.3,280 368.3,554.6 567.7,555.5 615.3,505.3 615.3,371 795.4,417 965.8,417.2 
	967.6,409.9 999.7,409.8 1000.6,416.3 1027.5,416.2 1108.7,369.7 1558.8,369.7 1804,546.4 1942.3,690.2 "/>
<image style="overflow:visible;" width="1384" height="561" xlink:href="890F0DC.jpg"  transform="matrix(1 0 0 1 247.2605 763.9445)">
</image>
<polygon class="st0" points="514.3,1100.4 901,1100.4 899.7,1106.4 628.7,1216.8 514.3,1112 "/>
<image style="display:none;overflow:visible;" width="1024" height="1024" xlink:href="Figura 1.png"  transform="matrix(1 0 0 1 2365.447 -149.3343)">
</image>
<g>
	<polygon class="st2" points="3035.3,225.5 3388.9,-141.2 3371.7,-149.3 3013.9,34.7 2995.8,163 3005.3,225.5 	"/>
	<path class="st3" d="M3013.9,34.7c0,0,39.8,48.7,14,101.2c-20.7,42.3,7.4,89.6,7.4,89.6l-148.6,154l-47.1,3.4l4-111.4l-3.6-86.8
		l-9.6-50.8l-0.6-7.7L3013.9,34.7z"/>
	<path class="st4" d="M2849.2,116.5c0,0,69.6,77,49.7,121.7c-35.7,80.3-31,122.1-12.2,141.3l-133.9,139.6l-48.2-24.5l-11.7-132
		l1.1-79l-16.4-76.6L2849.2,116.5z"/>
	<path class="st5" d="M2752.9,519.1c0,0-49.1-47-3.2-189c23.5-72.5-48.6-134.9-48.6-134.9l-173.8,87.4l46,423.5L2752.9,519.1z"/>
	<path class="st6" d="M2626,652.4c0,0-102.4-93.9-34.9-227c52.4-103.6-56.5-146.4-56.5-146.4L2431,334.2l32.2,484.4L2626,652.4z"/>
	<path d="M2507.9,770.8c0,0-75.2-157.6-7.8-290.7c52.4-103.6-65.7-147.8-65.7-147.8l-25.7,11.7l-42.5,486.9l43.9,44.4L2507.9,770.8z
		"/>
</g>
</svg>
